<svg xmlns="http://www.w3.org/2000/svg" viewBox="0 0 500 500"><g id="freepik--background-complete--inject-2"><rect x="288.64" y="287.74" width="114.69" height="158.72" style="fill:#ebebeb"></rect><rect x="283.08" y="281.85" width="125.81" height="5.89" style="fill:#dbdbdb"></rect><rect x="408.89" y="281.85" width="39.57" height="5.89" style="fill:#ebebeb"></rect><rect x="403.33" y="287.74" width="38.86" height="158.72" style="fill:#dbdbdb"></rect><path d="M391,361.18H301V310.35h90Zm-89.71-.25h89.46V310.6H301.26Z" style="fill:#c7c7c7"></path><rect x="333.43" y="325.2" width="17.52" height="10.07" style="fill:#c7c7c7"></rect><path d="M356.25,334.63H338.48v-8.8h17.77Zm-17.52-.25H356v-8.3H338.73Z" style="fill:#c7c7c7"></path><path d="M391,425.08H301V374.25h90Zm-89.71-.25h89.46V374.5H301.26Z" style="fill:#c7c7c7"></path><rect x="333.43" y="389.1" width="17.52" height="10.07" style="fill:#c7c7c7"></rect><path d="M356.25,398.53H338.48v-8.8h17.77Zm-17.52-.25H356V390H338.73Z" style="fill:#c7c7c7"></path><path d="M87.59,245.5l-13.12.28-6.66.11c-2.23,0-4.47,0-6.7.05h-.44v-.45l-.06-11.19v-.5h.5l13.24.06c4.42,0,8.83.11,13.24.16h.28v.27c0,1.9-.09,3.78-.13,5.65Zm0,0-.14-5.66c0-1.86-.11-3.7-.13-5.53l.27.27c-4.41,0-8.82.16-13.24.16l-13.24.07.5-.5,0,11.19-.45-.45c2.18,0,4.36,0,6.55.06l6.58.11Z" style="fill:#ebebeb"></path><path d="M72.82,259.61l-13.12.28L53,260c-2.23,0-4.47,0-6.7.05H45.9v-.45l-.06-11.19v-.5h.5l13.24.06c4.41,0,8.83.11,13.24.16h.28v.27c0,1.9-.08,3.78-.13,5.65Zm0,0L72.68,254c-.05-1.86-.11-3.7-.13-5.53l.27.27c-4.41.05-8.83.16-13.24.16l-13.24.07.5-.5-.05,11.19-.45-.45c2.18,0,4.36,0,6.55.06l6.58.11Z" style="fill:#ebebeb"></path><path d="M363.58,366.85l-13.12.28-6.66.11c-2.23.05-4.47,0-6.7.05h-.44v-.45l-.06-11.19v-.5h.5l13.24.06c4.42,0,8.83.11,13.24.16h.28v.27c0,1.9-.09,3.78-.14,5.65Zm0,0-.14-5.66c0-1.86-.11-3.7-.13-5.53l.27.27c-4.41.05-8.82.16-13.24.16l-13.24.07.5-.5-.05,11.19-.45-.45c2.18,0,4.36,0,6.55.06l6.58.11Z" style="fill:#ebebeb"></path><path d="M348.81,381l-13.12.28-6.67.11c-2.22,0-4.46,0-6.69,0h-.44V381l-.05-11.19v-.5h.5l13.24.06c4.41,0,8.83.11,13.24.16h.28v.27c0,1.9-.08,3.78-.13,5.65Zm0,0-.14-5.66c-.05-1.86-.11-3.7-.13-5.53l.27.27c-4.41,0-8.83.16-13.24.16l-13.24.07.5-.5L322.78,381l-.45-.45c2.18,0,4.36,0,6.55.06l6.57.11Z" style="fill:#ebebeb"></path><path d="M453.66,259.61l-13.13.28-6.66.11c-2.22,0-4.46,0-6.69.05h-.45v-.45l-.05-11.19v-.5h.5l13.24.06c4.41,0,8.83.11,13.24.16h.27v.27c0,1.9-.08,3.78-.13,5.65Zm0,0-.14-5.66c0-1.86-.12-3.7-.13-5.53l.27.27c-4.41.05-8.83.16-13.24.16l-13.24.07.5-.5-.06,11.19-.44-.45c2.18,0,4.36,0,6.54.06l6.58.11Z" style="fill:#ebebeb"></path><path d="M438.89,61.14l-13.13.28-6.66.11c-2.22,0-4.46,0-6.69.06H412v-.45l0-11.19v-.5h.51l13.24.06c4.41,0,8.82.12,13.24.17h.27V50c0,1.9-.09,3.79-.13,5.66Zm0,0-.14-5.65c-.05-1.87-.12-3.71-.14-5.54l.28.27c-4.42.06-8.83.16-13.24.17l-13.24.06.5-.5-.06,11.19-.44-.44c2.18,0,4.35,0,6.54,0l6.58.11Z" style="fill:#ebebeb"></path><path d="M453.66,75.25l-13.13.28-6.66.11c-2.22,0-4.46,0-6.69.06h-.45v-.45l-.05-11.19v-.5h.5l13.24.06c4.41,0,8.83.12,13.24.17h.27v.27c0,1.9-.08,3.79-.13,5.66Zm0,0-.14-5.65c0-1.87-.12-3.71-.13-5.54l.27.27c-4.41.06-8.83.16-13.24.17l-13.24.06.5-.5-.06,11.19-.44-.44c2.18,0,4.36,0,6.54,0l6.58.11Z" style="fill:#ebebeb"></path><path d="M87.59,61.14l-13.12.28-6.66.11c-2.23,0-4.47,0-6.7.06h-.44v-.45L60.61,50v-.5h.5l13.24.06c4.42,0,8.83.12,13.24.17h.28V50c0,1.9-.09,3.79-.13,5.66Zm0,0-.14-5.65c0-1.87-.11-3.71-.13-5.54l.27.27c-4.41.06-8.82.16-13.24.17l-13.24.06.5-.5,0,11.19-.45-.44c2.18,0,4.36,0,6.55,0l6.58.11Z" style="fill:#ebebeb"></path><path d="M348.81,146.27l-13.12.28-6.67.11c-2.22.05-4.46,0-6.69.05h-.44v-.45l-.05-11.19v-.5h.5l13.24.06c4.41,0,8.83.12,13.24.17h.28v.27c0,1.9-.08,3.79-.13,5.65Zm0,0-.14-5.65c-.05-1.87-.11-3.71-.13-5.54l.27.27c-4.41.05-8.83.16-13.24.17l-13.24.06.5-.5-.05,11.19-.45-.45c2.18,0,4.36,0,6.55.06l6.57.11Z" style="fill:#ebebeb"></path><circle cx="130.08" cy="85.58" r="35.78" transform="translate(25.37 200.82) rotate(-81.08)" style="fill:#ebebeb"></circle><circle cx="131.72" cy="86.37" r="34.14" style="fill:#dbdbdb"></circle><circle cx="131.72" cy="86.37" r="31.99" style="fill:#fff"></circle><path d="M163,79.58c-14.56,8.83-38.5,23.31-51.88,31.24a31.81,31.81,0,0,1-8.74-11.75l44.25-41A32,32,0,0,1,163,79.58Z" style="fill:#ebebeb;opacity:0.5"></path><path d="M163.68,87.49a31.73,31.73,0,0,1-2.11,10.39l-39.9,18.87a31.62,31.62,0,0,1-5-2.16C128.69,107.62,150.71,95,163.68,87.49Z" style="fill:#ebebeb;opacity:0.5"></path><rect x="131.41" y="56.71" width="0.62" height="4.85" style="fill:#c7c7c7"></rect><rect x="117.79" y="60.36" width="0.62" height="4.85" transform="translate(-15.57 67.45) rotate(-30)" style="fill:#c7c7c7"></rect><rect x="107.82" y="70.33" width="0.62" height="4.85" transform="translate(-8.95 130.01) rotate(-60)" style="fill:#c7c7c7"></rect><rect x="102.06" y="86.06" width="4.85" height="0.62" style="fill:#c7c7c7"></rect><rect x="105.7" y="99.68" width="4.85" height="0.62" transform="matrix(0.87, -0.5, 0.5, 0.87, -35.52, 67.49)" style="fill:#c7c7c7"></rect><rect x="115.68" y="109.66" width="4.85" height="0.62" transform="translate(-36.16 157.34) rotate(-60.03)" style="fill:#c7c7c7"></rect><rect x="131.41" y="111.19" width="0.62" height="4.85" style="fill:#c7c7c7"></rect><rect x="145.03" y="107.54" width="0.62" height="4.85" transform="translate(-35.51 87.4) rotate(-30)" style="fill:#c7c7c7"></rect><rect x="155" y="97.57" width="0.62" height="4.85" transform="translate(-8.95 184.49) rotate(-60)" style="fill:#c7c7c7"></rect><rect x="156.54" y="86.06" width="4.85" height="0.62" style="fill:#c7c7c7"></rect><rect x="152.89" y="72.44" width="4.85" height="0.62" transform="translate(-15.57 87.4) rotate(-30)" style="fill:#c7c7c7"></rect><rect x="142.92" y="62.47" width="4.85" height="0.62" transform="translate(18.34 157.32) rotate(-60.03)" style="fill:#c7c7c7"></rect><polygon points="132.19 58.9 133.24 88.53 130.2 88.5 131.36 58.89 132.19 58.9" style="fill:#c7c7c7"></polygon><polygon points="150.64 76.04 130.71 88.76 129.26 86.1 150.25 75.32 150.64 76.04" style="fill:#a6a6a6"></polygon><path d="M132.76,86.37a1,1,0,1,1-1-1A1,1,0,0,1,132.76,86.37Z" style="fill:#c7c7c7"></path></g><g id="freepik--Floor--inject-2"><polygon points="44.88 446.5 96.16 446.25 147.44 446.16 250 446 352.56 446.16 403.84 446.25 455.12 446.5 403.84 446.74 352.56 446.83 250 446.99 147.44 446.83 96.16 446.74 44.88 446.5" style="fill:#263238"></polygon></g><g id="freepik--Board--inject-2"><rect x="355.44" y="49.79" width="99.69" height="111.22" style="fill:#dbdbdb"></rect><rect x="362" y="56.36" width="86.55" height="98.14" style="fill:#ebebeb"></rect><rect x="369.83" y="73.71" width="30.51" height="36.15" style="fill:#fff"></rect><path d="M386.18,76.17a1.1,1.1,0,1,1-1.1-1.09A1.1,1.1,0,0,1,386.18,76.17Z" style="fill:#455a64"></path><path d="M375.63,81c3.09-.24,6.17-.26,9.26-.29s6.17,0,9.25.29c-3.08.23-6.17.25-9.25.28S378.72,81.19,375.63,81Z" style="fill:#ebebeb"></path><path d="M375.63,83.81a45.32,45.32,0,0,1,10.06,0,43.77,43.77,0,0,1-10.06,0Z" style="fill:#ebebeb"></path><path d="M375.63,86.67c2.15-.22,4.29-.28,6.43-.29a62.88,62.88,0,0,1,6.43.29c-2.14.22-4.29.28-6.43.29S377.78,86.89,375.63,86.67Z" style="fill:#ebebeb"></path><path d="M375.63,89.53c2.68-.23,5.37-.28,8.05-.29s5.36.06,8,.29c-2.68.22-5.36.27-8,.28S378.31,89.75,375.63,89.53Z" style="fill:#ebebeb"></path><path d="M375.63,92.38c2.33-.22,4.66-.27,7-.28s4.66.06,7,.28c-2.33.23-4.66.28-7,.29S378,92.61,375.63,92.38Z" style="fill:#ebebeb"></path><path d="M375.63,95.24c3-.24,6-.25,8.95-.29s6,0,8.94.29c-3,.24-6,.25-8.94.29S378.61,95.48,375.63,95.24Z" style="fill:#ebebeb"></path><path d="M375.63,98.1a57.75,57.75,0,0,1,11.56,0,59.8,59.8,0,0,1-11.56,0Z" style="fill:#ebebeb"></path><path d="M375.63,101c3.09-.23,6.17-.25,9.26-.28s6.17,0,9.25.28c-3.08.24-6.17.26-9.25.29S378.72,101.19,375.63,101Z" style="fill:#ebebeb"></path><path d="M375.63,103.81c3.09-.24,6.17-.25,9.26-.29s6.17,0,9.25.29c-3.08.24-6.17.25-9.25.29S378.72,104.05,375.63,103.81Z" style="fill:#ebebeb"></path><rect x="404.98" y="96.25" width="36.1" height="42.78" style="fill:#fff"></rect><path d="M424.13,102a1.1,1.1,0,1,1-1.1-1.1A1.09,1.09,0,0,1,424.13,102Z" style="fill:#455a64"></path><path d="M410,106.93a27.8,27.8,0,0,1,8,0,28.78,28.78,0,0,1-8,0Z" style="fill:#ebebeb"></path><path d="M410,110.15a45.09,45.09,0,0,1,5.18-.29,43,43,0,0,1,5.19.29,46.5,46.5,0,0,1-10.37,0Z" style="fill:#ebebeb"></path><path d="M410,113.38a40,40,0,0,1,9.61,0,41.37,41.37,0,0,1-9.61,0Z" style="fill:#ebebeb"></path><path d="M410,116.6a41.37,41.37,0,0,1,9.61,0,40,40,0,0,1-9.61,0Z" style="fill:#ebebeb"></path><path d="M410,119.83a30.13,30.13,0,0,1,8.34,0,31.19,31.19,0,0,1-8.34,0Z" style="fill:#ebebeb"></path><path d="M410,123.05a51.06,51.06,0,0,1,10.68,0,49.31,49.31,0,0,1-10.68,0Z" style="fill:#ebebeb"></path><path d="M410,126.28a33.68,33.68,0,0,1,8.82,0,33.68,33.68,0,0,1-8.82,0Z" style="fill:#ebebeb"></path><path d="M410,129.5a54.65,54.65,0,0,1,11.05,0,52.78,52.78,0,0,1-11.05,0Z" style="fill:#ebebeb"></path><path d="M410,132.73a48.66,48.66,0,0,1,5.53-.29,46.4,46.4,0,0,1,5.52.29,48.61,48.61,0,0,1-5.52.29A51.08,51.08,0,0,1,410,132.73Z" style="fill:#ebebeb"></path><path d="M425.81,106.93a47.58,47.58,0,0,1,10.49,0,49.27,49.27,0,0,1-10.49,0Z" style="fill:#ebebeb"></path><path d="M425.81,110.15a20.09,20.09,0,0,1,3.45-.29,19.1,19.1,0,0,1,3.44.29,20.61,20.61,0,0,1-6.89,0Z" style="fill:#ebebeb"></path><path d="M425.81,113.38a42.14,42.14,0,0,1,9.87,0,43.63,43.63,0,0,1-9.87,0Z" style="fill:#ebebeb"></path><path d="M425.81,116.6a41.28,41.28,0,0,1,9.6,0,39.87,39.87,0,0,1-9.6,0Z" style="fill:#ebebeb"></path><path d="M425.81,119.83a47.58,47.58,0,0,1,10.49,0,49.27,49.27,0,0,1-10.49,0Z" style="fill:#ebebeb"></path><path d="M425.81,123.05a31.19,31.19,0,0,1,8.34,0,30.13,30.13,0,0,1-8.34,0Z" style="fill:#ebebeb"></path><path d="M425.81,126.28a42.14,42.14,0,0,1,9.87,0,42.14,42.14,0,0,1-9.87,0Z" style="fill:#ebebeb"></path><path d="M425.81,129.5a26.13,26.13,0,0,1,7.63,0,25.24,25.24,0,0,1-7.63,0Z" style="fill:#ebebeb"></path><path d="M425.81,132.73a21.5,21.5,0,0,1,3.66-.29,20.53,20.53,0,0,1,3.66.29,21.5,21.5,0,0,1-3.66.29A22.57,22.57,0,0,1,425.81,132.73Z" style="fill:#ebebeb"></path><rect x="397.53" y="63.78" width="18.36" height="18.36" style="fill:#0A6D35"></rect><path d="M407.8,65.64a1.1,1.1,0,1,1-1.09-1.1A1.1,1.1,0,0,1,407.8,65.64Z" style="fill:#455a64"></path><rect x="446" y="56.36" width="2.48" height="98.25" style="fill:#c7c7c7"></rect></g><g id="freepik--Character--inject-2"><polygon points="191.23 305.26 194.15 325.14 213.89 446.46 217.08 446.46 202.72 325.14 200.6 305.26 191.23 305.26" style="fill:#c7c7c7"></polygon><polygon points="200.6 305.26 191.23 305.26 194.15 325.14 202.72 325.14 200.6 305.26" style="fill:#a6a6a6"></polygon><polygon points="129.23 446.46 132.41 446.46 152.15 325.14 155.07 305.26 145.71 305.26 143.59 325.14 129.23 446.46" style="fill:#c7c7c7"></polygon><polygon points="145.71 305.26 143.59 325.14 152.15 325.14 155.07 305.26 145.71 305.26" style="fill:#a6a6a6"></polygon><polygon points="70 446.46 73.18 446.46 92.93 325.14 95.84 305.26 86.48 305.26 84.36 325.14 70 446.46" style="fill:#c7c7c7"></polygon><polygon points="84.36 325.14 92.93 325.14 95.84 305.26 86.48 305.26 84.36 325.14" style="fill:#a6a6a6"></polygon><polygon points="75.05 313.47 219.74 313.47 219.74 298.23 165.57 298.23 147.37 170.21 70.56 170.21 75.05 313.47" style="fill:#c7c7c7"></polygon><polygon points="75.67 298.23 219.74 298.23 219.74 313.47 75.12 313.47 75.67 298.23" style="fill:#dbdbdb"></polygon><polygon points="75.05 313.47 82.94 313.47 78.08 170.21 70.56 170.21 75.05 313.47" style="fill:#dbdbdb"></polygon><path d="M213.06,457.79c-3.19-.44-83.33-40.43-85.37-43.79-.25-.39,3.2-7.71,8.11-17.67,11.08-22.53,33.25-60.63,33.25-60.63l48.25,27.11-26.56,50.31s8.91,10.79,16.15,19.95c0,0,0,0,0,0,4.45,5.63,8.28,10.65,9,12.15C217.71,449.18,216.24,458.23,213.06,457.79Z" style="fill:#ad6359"></path><path d="M213.06,457.79c-3.19-.44-83.33-40.43-85.37-43.79-.25-.39,3.2-7.71,8.11-17.67,17.81,14,67.53,46.76,71.09,43.33,1.42-1.37,1.07-3.88,0-6.55,4.45,5.63,8.28,10.65,9,12.15C217.71,449.18,216.24,458.23,213.06,457.79Z" style="fill:#263238"></path><path d="M200.27,408.66l-55.9-29.5s42.65-83.58,41.53-85c-3.92-5.05-51.14-2.75-71.54-23-21.59-21.46-5.1-52-5.1-52h56.43s-.52,15.31,1.91,17.32c1.6,1.33,84.56,9.33,87.81,31.22C261,305.52,200.27,408.66,200.27,408.66Z" style="fill:#37474f"></path><path d="M203.76,398.24c-6.73-4.06-13.62-7.8-20.53-11.53s-13.87-7.36-20.9-10.84c-4-2-8-3.74-12-5.7a.11.11,0,0,0-.11.2c3.48,1.87,6.87,3.92,10.34,5.8s6.85,3.71,10.29,5.54c6.93,3.67,13.91,7.27,20.87,10.9,3.92,2.06,7.89,4,11.88,5.89A.15.15,0,0,0,203.76,398.24Z" style="fill:#263238"></path><path d="M208.12,284.85c-1.39-2.87-5.07-3.29-7.81-4q-11.25-2.82-22.51-5.61c-13.29-3.29-27-6.4-38.91-13.44-5.69-3.37-11.21-7.62-14-13.76S122,235.39,122,228.91c0-1.61.09-3.21.19-4.81,0-.14-.21-.13-.21,0-.42,6.38-1.07,12.77.36,19.09a25.67,25.67,0,0,0,3.58,8.61,29.76,29.76,0,0,0,6.48,6.82c10.54,8.26,23.75,12.22,36.53,15.48,7.22,1.84,14.47,3.6,21.71,5.37l11.18,2.74c1.57.38,3.35.7,4.59,1.81a4.84,4.84,0,0,1,1.38,4.05,15.58,15.58,0,0,1-1.13,4.45c-.67,1.75-1.38,3.49-2.09,5.23q-2.06,5.1-4.24,10.14-4.38,10.17-9.11,20.19c-6.27,13.32-13,26.44-19.81,39.48-.85,1.62-1.68,3.26-2.51,4.89-.06.1.09.18.15.08,7.32-12.89,14.16-26.07,20.67-39.38s12.62-26.65,17.85-40.4C208.44,290.33,209.32,287.34,208.12,284.85Z" style="fill:#263238"></path><path d="M373.72,460.76c-3.06,1-92.62.05-95.92-2.09-.4-.24-.42-19.43-.42-19.43-14.71-33.39-28-65.68-28-65.68l62.61-.08,22.15,56.86s12.74,5.81,23.25,10.89l0,0c6.46,3.12,12.1,6,13.38,7C374.14,451,376.77,459.77,373.72,460.76Z" style="fill:#ad6359"></path><path d="M373.72,460.76c-3.06,1-92.62.05-95.92-2.09-.4-.24-.49-8.33-.42-19.43,22.14,4.83,81.16,12.55,82.87,7.91.68-1.85-.74-4-2.85-5.9,6.46,3.12,12.1,6,13.38,7C374.14,451,376.77,459.77,373.72,460.76Z" style="fill:#263238"></path><path d="M329.51,418.33l-67.61-.5s-34-87.58-39.49-93.45c-2.78-3-21.39-6.29-43.61-11.16l-.12,0c-8.21-1.8-16.92-3.82-25.49-6.13-22.3-5.95-43.75-13.77-53.52-24.58-20.44-22.59,0-63.41,0-63.41h57.57s1.43,17.77-3,28.65c0,0,42.36,6.22,78,17.79,20.21,6.55,38.27,14.84,45.27,24.7C291.2,309.48,329.51,418.33,329.51,418.33Z" style="fill:#37474f"></path><path d="M321.88,408.19c-7.84-.58-15.67-.78-23.53-1s-15.7-.27-23.54-.18c-4.43,0-8.85.3-13.27.36a.11.11,0,0,0,0,.22c4,.08,7.9.38,11.85.48s7.78.2,11.68.27c7.85.13,15.7.17,23.54.25,4.43.05,8.85,0,13.27-.14A.15.15,0,0,0,321.88,408.19Z" style="fill:#263238"></path><path d="M129,227.47a4.31,4.31,0,0,1-.32.77.09.09,0,0,0,0,.13c-.76,2.36-1.08,4.87-1.81,7.23a11.34,11.34,0,0,1-4.37,6.24c-4.46,3.1-9.84,4.51-15,5.79a.15.15,0,0,0,.05.29,28.4,28.4,0,0,0,8.86-1.36,22.92,22.92,0,0,0,7.47-3.58,11.65,11.65,0,0,0,4.29-6.45,39,39,0,0,0,.75-4.16,33,33,0,0,0,.52-4.85A.23.23,0,0,0,129,227.47Z" style="fill:#263238"></path><path d="M164.79,243.76a65.5,65.5,0,0,0-10.35,4l-.17.07a2.78,2.78,0,0,0,.16-.63l.12-.75c0-.25.06-.52.08-.78l0-.4v0a3.09,3.09,0,0,0,2.22-1.14,8.38,8.38,0,0,0,1.39-3.26c.39-1.47.74-2.95,1.06-4.44.36-1.66.67-3.32.93-5a31.93,31.93,0,0,0,.57-5,.23.23,0,0,0-.46-.05c-.39,1.52-.57,3.1-.86,4.65s-.62,3.09-1,4.63-.74,3.07-1.16,4.59c-.38,1.35-.76,3.32-2.33,3.76-3.23.92-1.78-6.33-1.64-7.75.33-3.29.54-6.64,1.11-9.89,0-.14-.18-.19-.21-.05-.7,3-1.51,5.93-2,9-.26,1.48-.45,3-.61,4.48a6.94,6.94,0,0,0,.3,3.86,2.86,2.86,0,0,0,2.13,1.58c0,.11-.06.22-.1.33s-.15.48-.21.73-.11.49-.17.73a1.87,1.87,0,0,0-.11.9.42.42,0,0,0,.16.19c-1.38.6-2.76,1.2-4.13,1.83a37.22,37.22,0,0,0-5,2.41c-.18.09,0,.35.14.31a35.87,35.87,0,0,0,5.2-1.88c1.73-.66,3.44-1.37,5.15-2.08a64.66,64.66,0,0,0,9.84-4.58A.17.17,0,0,0,164.79,243.76Z" style="fill:#263238"></path><path d="M256.8,375.49q-5.34-13.25-11.31-26.21T232.88,323.6c-1.92-3.67-3.67-7.39-7.51-9.38a27.8,27.8,0,0,0-5.53-2c-2.24-.6-4.49-1.17-6.74-1.74-18.34-4.64-36.87-8.46-55.09-13.56-9.1-2.56-18.13-5.43-26.94-8.88-7.15-2.79-14.29-6-20.24-11a32.24,32.24,0,0,1-7.26-8.27c-2.26-3.78-7.54-14.06.28-45.18,0-.14-.15-.24-.19-.11-6.23,22.17-4.92,34.24-3.78,38.65A28.22,28.22,0,0,0,105,272.5c4.61,5.89,11.11,10,17.78,13.16a187,187,0,0,0,24.69,9.25c18.15,5.68,36.77,9.67,55.26,14,4.59,1.09,9.17,2.2,13.74,3.37,4.08,1.05,8.85,1.87,11.78,5.19a27.87,27.87,0,0,1,3.41,5.64c1.1,2.12,2.18,4.24,3.26,6.37q3.3,6.54,6.46,13.14,12.48,26.07,22.71,53.14c.84,2.24,1.67,4.47,2.53,6.7.07.17.33.09.28-.08C263.89,393.33,260.39,384.37,256.8,375.49Z" style="fill:#263238"></path><path d="M232.07,343.18a65.55,65.55,0,0,0-4.88-12.05c-1.8-3.53-3.82-7.74-7.74-9.25a56.78,56.78,0,0,0-6.41-1.76q-3.4-.87-6.82-1.68-6.83-1.62-13.7-3.06c-5.09-1.06-10.24-2.07-15.42-2.63-.12,0-.13.18,0,.22,4.38,1.27,8.85,2.23,13.28,3.3s8.66,2.06,13,3.11,8.86,2.2,13.28,3.36a10.74,10.74,0,0,1,5.18,2.74c2,1.94,8.8,16.29,9.91,18.43C232,344.54,232.25,343.83,232.07,343.18Z" style="fill:#263238"></path><path d="M255.62,273.93a104.53,104.53,0,0,0-16.43-7.51c-6.46-2.2-13.06-4-19.65-5.84-13.55-3.69-27.29-6.77-41.12-9.25q-5.91-1.07-11.83-2A106.28,106.28,0,0,0,155,247.89c-.14,0-.16.2,0,.24,3.42.84,6.94,1.37,10.42,2s6.86,1.2,10.28,1.86q10.26,2,20.46,4.28c13.45,3,26.92,6.39,40.07,10.55a175.91,175.91,0,0,1,19.19,7.65A.29.29,0,0,0,255.62,273.93Z" style="fill:#263238"></path><path d="M152,115.73a4.92,4.92,0,0,0,7.64-4.57,4.52,4.52,0,0,0,5.49-.48,4.34,4.34,0,0,0,.3-5.74s0,0,0,0a4.41,4.41,0,0,1-.51,5.44,4,4,0,0,1-4.36.74,5.46,5.46,0,0,0,4-1.58,4.2,4.2,0,0,0,.78-4.59,6.19,6.19,0,0,0,3.73-4.12,4.23,4.23,0,0,0-1.6-4.32A4.71,4.71,0,0,0,165.85,88a3.94,3.94,0,0,0-.84-6.59,2.65,2.65,0,0,0,.33-2.85,4.46,4.46,0,0,0-2.67-2.13,3.19,3.19,0,0,0-1.08-2.84,2.89,2.89,0,0,0-3.74.13,7.88,7.88,0,0,0-4.33-3.61,4.12,4.12,0,0,0-4.35,1.36,5.71,5.71,0,0,0-8.54,0,4,4,0,0,0-4-.09,6,6,0,0,0-2.19,1.85,3,3,0,0,0-3.47.53A4,4,0,0,0,129.9,77a2.13,2.13,0,0,1-.67.75,5.22,5.22,0,0,0-2.2,4.42,3.56,3.56,0,0,0-2,4.93,4,4,0,0,0-.87,5.55,5.84,5.84,0,0,0-2,4.42,3.38,3.38,0,0,0,1.83,3.22,2.05,2.05,0,0,0,.26,2.71,4.63,4.63,0,0,0,.87.72,4.31,4.31,0,0,1,1.17.84,3.14,3.14,0,0,1,.3,1.36,5,5,0,0,0,.28.93,5.29,5.29,0,0,0,5.89,3c.33,1.7,1.95,2.67,3.56,3a8.5,8.5,0,0,0,1.59.17,2.27,2.27,0,0,1,1.35.38c.25.18.46.42.72.61a3.65,3.65,0,0,0,2.89.4C143.87,119,149.53,119.17,152,115.73ZM130.87,74.5a3.18,3.18,0,0,1,3.49-1.12l-.08.15s-.44,0-.65,0a4,4,0,0,0-1.13.29,4.27,4.27,0,0,0-1.85,1.54,4.6,4.6,0,0,0-.45,1,.61.61,0,0,0,0,.12A3.82,3.82,0,0,1,130.87,74.5Zm30.57.2A3,3,0,0,0,158,74l-.06-.08c1.1-.7,2.3-1,3.46-.06a2.61,2.61,0,0,1,.89,2.5h0A3.39,3.39,0,0,0,161.44,74.7ZM143,114.47h0a5.51,5.51,0,0,0,7.32,2.3C147.65,118.38,144.35,118.2,143,114.47Z" style="fill:#263238"></path><path d="M148,164.21c8.44,24.07,23.5,52.38,29.05,56.62,7,5.37,50.23,11.83,52.35,11.82,5.24-.05,8.6-36,3-36.2-8.54-.28-36.43-1-38.47-2.7s-16.83-16.57-32.14-33.46C151.23,148.62,142.78,149.27,148,164.21Z" style="fill:#ad6359"></path><path d="M222.73,231.37c.62.23,9.35,3.46,14.62,4.37,3.94.68,15.32,2.33,16.5-1.93.8-2.9-5.78-4.66-10.4-6-2.44-.71-5.58-2.82-5.06-4.4.91-2.75,7.19-.79,11.39,1.06,8.12,3.57,19.16,10.41,23.38,6,1.6-1.66-.74-4.09-4-6.36,5.19,2.49,10.65,4.41,12.49,2.64,1.06-1,1-2.23.18-3.53,1.55.32,2.86.07,3.68-1,1.39-1.82.35-4.17-1.65-6.48a1.85,1.85,0,0,0,1.32-1.1c2.77-5.46-15.57-18.2-21.5-18.93-17.46-2.14-35.29.62-35.29.62C222.28,202.41,222.72,231.36,222.73,231.37Z" style="fill:#ad6359"></path><path d="M246,212.92a29,29,0,0,1,11.83,3.1c4.63,2.36,7.86,5.37,11.85,8.32.11.08,0,.24-.11.17-1.91-1.41-9.72-6.6-11.71-7.76A27.86,27.86,0,0,0,246,213S245.94,212.92,246,212.92Z" style="fill:#263238"></path><path d="M248.34,205.35a69.64,69.64,0,0,1,13.71,3.1c4.8,1.8,8.77,5.18,12.67,8.41q3.51,2.92,6.89,6c.09.09,0,.25-.12.17q-5.94-5-12.18-9.7a36.59,36.59,0,0,0-12.88-6.23c-2.67-.69-5.38-1.18-8.09-1.66A0,0,0,0,1,248.34,205.35Z" style="fill:#263238"></path><path d="M252.41,198.51c4.44.41,8.32.75,12.42,2.64,5.43,2.51,10.93,7.15,12.86,8.8,2.13,1.82,4.2,3.71,6.24,5.63.08.08-.05.22-.14.15a146,146,0,0,0-14.71-11.64,29.31,29.31,0,0,0-7.94-4,52.71,52.71,0,0,0-8.73-1.56A0,0,0,0,1,252.41,198.51Z" style="fill:#263238"></path><path d="M227.92,192.73l-8.33,42.32s-36.06-6.06-43.21-12.24-22.92-40.41-28.31-57.25,3.37-17.39,12.59-7.42,32.11,34.07,33.29,34.52S227.92,192.73,227.92,192.73Z" style="fill:#0A6D35"></path><path d="M162,159.6l-.1-.11-1,.63a82.2,82.2,0,0,0-9.32,6.76,5.63,5.63,0,0,0-3.67-1.78c0,.08,0,.16.08.25a5.14,5.14,0,0,1,3.43,1.66l-.67.56a21.28,21.28,0,0,0-1.52,1.49c0,.09.06.18.1.27.24-.27.5-.54.75-.79.47-.48,1-.92,1.49-1.37a5.38,5.38,0,0,1,.69,1.08c.88,1.82.46,3.86.07,5.74-.14.7-.29,1.4-.47,2.1l.14.35c.15-.55.27-1.1.39-1.65.41-1.94,1-4.08.31-6a5.31,5.31,0,0,0-1-1.72,74.37,74.37,0,0,1,7.66-5.72C160.26,160.73,161.14,160.16,162,159.6Zm13.69,14.53a21.37,21.37,0,0,1-3.15,1.18,26.11,26.11,0,0,1-6.09.88,12.43,12.43,0,0,0-5.21,1.06c-2.56,1.3-4.29,3.78-6.79,5.18,0,.11.09.22.14.34,1.84-1,3.37-2.74,5-4a9.8,9.8,0,0,1,5.2-2.11,56.22,56.22,0,0,0,6.34-.62,20.71,20.71,0,0,0,4.81-1.67A2.55,2.55,0,0,1,175.71,174.13Zm2.06,43.41a40.42,40.42,0,0,0-2.86-6.83c-.38-.77-.75-1.55-1.13-2.32a11.36,11.36,0,0,0,1.65,0c.1,0,.09-.17,0-.16a9.83,9.83,0,0,1-1.71.05c-.18-.34-.35-.69-.53-1,0-.08-.19,0-.15.07.14.32.29.64.44,1-3.78-.3-7.07-2.7-9.64-5.45.15.31.31.61.46.91a15.41,15.41,0,0,0,8.07,4.54,11.63,11.63,0,0,0,1.17.13c1.78,3.78,4,7.54,4.41,11.75a16,16,0,0,1-.11,3.72l.28.16c0-.32.08-.65.11-1A15.88,15.88,0,0,0,177.77,217.54Zm15.94-25a17.21,17.21,0,0,1-3.14.26,22.25,22.25,0,0,0-5.53.4,14.85,14.85,0,0,0-4.57,2.11c-2.21,1.46-4.79,3.44-7.58,2.37-2.55-1-3.95-3.86-4.34-6.4a6.67,6.67,0,0,1,3.16-7.16,22.86,22.86,0,0,1,4.07-2.06,48,48,0,0,1,4.94-1.71l.7-.19.19.2c-.45.12-.91.26-1.36.4a44.59,44.59,0,0,0-5.16,2A17,17,0,0,0,171,185c-2.41,2.06-2.65,5.22-1.6,8.06.93,2.53,3.11,4.93,6.05,4.34,2.69-.53,4.73-2.76,7.18-3.87a13.77,13.77,0,0,1,4.27-1.13c1.61-.16,3.23,0,4.85-.08a11.91,11.91,0,0,0,1.58-.16Zm27.15,36.11a8.2,8.2,0,0,0-1.23-3.2,57.83,57.83,0,0,0-3.65-4.62,10.13,10.13,0,0,1-2.18-5.9c-.15-3.67,1-7.54-.58-11a6.49,6.49,0,0,0-8.19-3.24,2.8,2.8,0,0,0-.91-2,4.36,4.36,0,0,0-2-1.05,7.62,7.62,0,0,0-5,.66,10.41,10.41,0,0,0-3.72,3.68,7.75,7.75,0,0,1-2.16,2.26,12.74,12.74,0,0,1-2.24,1c-1.33.5-2.76,1.15-3.16,2.64a3.92,3.92,0,0,0,1.78,4.1c3,2.06,7.19,1.44,10.24-.27a19.25,19.25,0,0,1-.75,2.09,14.44,14.44,0,0,1-3.36,4.4,12.38,12.38,0,0,0-3.14,4.09,8.74,8.74,0,0,0-.3,5.06,9.11,9.11,0,0,0,.47,1.48l.4.11a9.62,9.62,0,0,1-.71-4.36,7.94,7.94,0,0,1,2.28-4.8c1.13-1.22,2.45-2.28,3.47-3.61a12.89,12.89,0,0,0,2-4.18c.06-.19.12-.4.17-.59l.15-.09c3.36-2.2,6.16-6,6.42-10.14,2.46-.89,5.33-.65,7.11,1.49,2.33,2.77,1.66,6.78,1.47,10.09a13.27,13.27,0,0,0,.6,5.57,14.76,14.76,0,0,0,2.76,4.14,17.76,17.76,0,0,1,3.27,4.65,5.88,5.88,0,0,1-.41,5.45,9.28,9.28,0,0,1-1.95,2.28l.31.05a9.13,9.13,0,0,0,2.08-2.54,0,0,0,0,0,0,0,6.29,6.29,0,0,0,.68-1.89A5.58,5.58,0,0,0,220.86,228.61Zm-21-18.8a12,12,0,0,1-1.41,1.05c.82-3,1.44-6.1,3.82-8.24a8,8,0,0,1,2.43-1.48A13.72,13.72,0,0,1,199.86,209.81Zm4.9-9.24c0,.05,0,.11,0,.16a8.71,8.71,0,0,0-4,3,15,15,0,0,0-2.08,4.71c-.26.91-.49,1.83-.75,2.74a10.66,10.66,0,0,1-8.38,1.31c-1.73-.51-3.46-1.73-3.6-3.69-.13-1.8,1.28-2.71,2.76-3.27a9.74,9.74,0,0,0,3.55-1.82c1.12-1.08,1.79-2.52,2.85-3.66a7.52,7.52,0,0,1,5-2.34c1.87-.12,4.6.59,4.76,2.77A.08.08,0,0,0,204.76,200.57ZM147.35,153a2.65,2.65,0,0,0-.24.4,8.51,8.51,0,0,1-.22,4,6.74,6.74,0,0,1-.39,1.06,4.45,4.45,0,0,0,.05.5,1.32,1.32,0,0,0,.12-.2A8.49,8.49,0,0,0,147.35,153Z" style="fill:#fff"></path><path d="M214.21,217.26c1-5,2.08-10,2.92-15,.48-2.86,1-5.72,1.42-8.58,0-.11-.17-.16-.19,0-1.23,5-2.45,10-3.44,15s-2,10-3,15q-.79,4.27-1.32,8.59c0,.05.08.08.1,0C212.13,227.31,213.17,222.29,214.21,217.26Z" style="fill:#263238"></path><path d="M201.34,231.4l-1.61-.37c-3-.71-6.12-1.49-9-2.32l-1.12-.32-1.74-.53-.85-.26-.31-.1-.88-.29c-1.17-.39-2.27-.78-3.31-1.18l-.72-.29a24.68,24.68,0,0,1-4.63-2.35c-.13-.1-.27-.19-.39-.29a3.78,3.78,0,0,1-.36-.29c-7.16-6.17-22.92-40.4-28.31-57.25l-.18-.58a.5.5,0,0,0,0-.13c-.38-1.28-.76-2.88-1.13-4.62v0c-1.44-8.52,2.46-10.37,7.9-7.16C170.17,178.49,194.27,220.67,201.34,231.4Z" style="opacity:0.1"></path><path d="M169,234.63l-78.38-2.79s21.77-60.45,39-76.7c7.82-7.4,20.57-7.2,27.66,0,1.39,1.4,14,23.77,15.07,32.18,1,7.44-5.51,15.24-5.51,15.24Z" style="fill:#0A6D35"></path><path d="M170.88,195.64l-.19.43a30.23,30.23,0,0,1-3.91,6.49l.21,3.08,0,.33,2,28.66-14.71-.52-.48,0-11.06-.39h-.23l-11.15-.4h-.31l-24.64-.88h0l-.5,0h0l-15.28-.54s2-5.51,5.23-13.65l.13-.34c1.76-4.4,3.87-9.53,6.22-15,0-.1.09-.21.14-.31q1-2.26,2-4.58c0-.1.09-.2.13-.29,2-4.42,4.1-8.95,6.29-13.35l.12-.25c1.25-2.5,2.52-5,3.81-7.35a3.72,3.72,0,0,1,.19-.34c4.1-7.57,8.35-14.31,12.42-18.92a2.09,2.09,0,0,1,.2-.22c.68-.77,1.37-1.49,2-2.13a19.5,19.5,0,0,1,3.32-2.52,1.27,1.27,0,0,1,.22-.13,20.62,20.62,0,0,1,11.76-2.78,4.41,4.41,0,0,1,.52,0,18.84,18.84,0,0,1,11.84,5.4,45,45,0,0,1,3.26,5.26s.05.09.08.14c2.34,4.15,5.44,10,7.88,15.51l.15.34a67.65,67.65,0,0,1,3,7.79c0,.12.07.23.1.35a18.67,18.67,0,0,1,.62,2.79A16.62,16.62,0,0,1,170.88,195.64Z" style="fill:#0A6D35"></path><path d="M168.44,176.05c-.65.07-1.31.11-2,.14a12.43,12.43,0,0,0-5.21,1.06c-2.6,1.32-4.34,3.85-6.9,5.24a5.26,5.26,0,0,1-4.62.33,5.76,5.76,0,0,1-1-.59,7.85,7.85,0,0,0,1.66-1.84,16.18,16.18,0,0,0,2-5.6c.41-1.94,1-4.08.31-6a5.31,5.31,0,0,0-1-1.72,74.37,74.37,0,0,1,7.66-5.72l1.16-.77s-.05-.1-.08-.14a80.31,80.31,0,0,0-8.88,6.48,5.48,5.48,0,0,0-6.94-1,6.27,6.27,0,0,0-3.56,4.87,13.05,13.05,0,0,0,.21,3.36,17.45,17.45,0,0,1,.16,3.23c-.08,1.68-.23,3.58,1.06,4.88a4.38,4.38,0,0,0,4,1.06,5.59,5.59,0,0,0,1.87-.86,5.27,5.27,0,0,0,3.61,1.12c3.13-.23,5.26-3,7.56-4.8a9.8,9.8,0,0,1,5.2-2.11c1.27-.13,2.54-.16,3.8-.27Zm-20.77,6.58a4.37,4.37,0,0,1-4.52-.2c-1.52-1.09-1.51-3-1.42-4.65a15.63,15.63,0,0,0,0-2.37c-.09-.93-.29-1.85-.4-2.78a6.46,6.46,0,0,1,1.38-5.1,7.19,7.19,0,0,1,1.59-1.36c-.1.08-.2.15-.3.24s0,.17.1.12a5.43,5.43,0,0,1,7.34.48l-.67.56c-2.84,2.54-5.39,6-5,10a7,7,0,0,0,2.45,4.67A6.06,6.06,0,0,1,147.67,182.63Zm-1.25-3.51c-1.34-3.9,1-7.9,3.68-10.58.47-.48,1-.92,1.49-1.37a5.38,5.38,0,0,1,.69,1.08c.88,1.82.46,3.86.07,5.74a22.07,22.07,0,0,1-1.5,5.11,8.19,8.19,0,0,1-2.33,3A6.41,6.41,0,0,1,146.42,179.12ZM167,205.64a24.77,24.77,0,0,1-4-3.78c-1.47-1.71-2.67-3.66-4.27-5.24a8.56,8.56,0,0,0-5-2.51,8.3,8.3,0,0,0-8.85,5,8.76,8.76,0,0,0-.44,5.16,9.94,9.94,0,0,0,3.09,4.87c1.6,1.52,3.38,2.87,4.57,4.76,0,0,0,0,0,0a6.71,6.71,0,0,0-1.35,1.9,20.4,20.4,0,0,1-2,3.61c-1.59,2-3.77,3.44-5.33,5.46a8.17,8.17,0,0,0-1.57,6.8,9.2,9.2,0,0,0,.66,2h.23a8.25,8.25,0,0,1,.1-7.39c1.1-2,3-3.44,4.6-5a14.33,14.33,0,0,0,2.1-2.44c.63-1,1-2.05,1.54-3.06a6.06,6.06,0,0,1,1.17-1.6,11.87,11.87,0,0,1,1.63,6.45c-.18,4.47-2.78,9-.23,13.23a1.37,1.37,0,0,0,.15.21l.48,0c.22-2-.26-4.12.3-6.12.79-2.78,3-4.83,4.15-7.44.91-2.09,1.25-4.88-.64-6.55a4.73,4.73,0,0,0-5.24-.64,3.32,3.32,0,0,0-.58.4,13.28,13.28,0,0,0-2-2.43,34,34,0,0,1-4.41-4.4,8.06,8.06,0,0,1,6.54-12.65,8.28,8.28,0,0,1,5.58,2.05,38.5,38.5,0,0,1,4.2,5.06A23.21,23.21,0,0,0,167,206Zm-13.48,7.74a4.5,4.5,0,0,1,2.81,0c2.51.77,3.25,3.34,2.62,5.7s-2.42,4.4-3.64,6.6a9.21,9.21,0,0,0-1.14,3.21,28,28,0,0,0,0,4,9.42,9.42,0,0,1-.08,1.2,8.32,8.32,0,0,1-1.32-4.78c.07-2.39.89-4.68,1.24-7a12.25,12.25,0,0,0-1.58-8.19A3.63,3.63,0,0,1,153.51,213.38Zm-37-12.34c-1.74-.32-3.53-.17-5.27-.46-.36-.06-.71-.14-1.06-.23a15.26,15.26,0,0,1,1.76-5.39c1.18-1.84,2.59-3.48,2.65-5.79a5,5,0,0,0-2.68-4.59,9.08,9.08,0,0,0-1-.48l-.12.25.15.06a5,5,0,0,1,3.36,4.37c.09,2.12-1.06,3.77-2.21,5.43a12.87,12.87,0,0,0-2,5.24c0,.26-.1.54-.16.83a15.45,15.45,0,0,1-3.65-1.56c-.58-.33-1.15-.68-1.73-1,0,.09-.09.19-.13.29l.3.17a23.76,23.76,0,0,0,3.91,2,11.22,11.22,0,0,0,1.25.38c-.32,1.71-.81,3.69-2.46,4.3-1.93.71-3.89-.73-5-2.21l-.06-.09c0,.1-.09.21-.14.31a5.41,5.41,0,0,0,3.87,2.45c2.24.17,3.28-1.68,3.78-3.59.09-.37.18-.73.25-1.1a16.17,16.17,0,0,0,2.85.4,13.57,13.57,0,0,1,5.07.74,5.9,5.9,0,0,1,.35,10.57c-2.24,1.38-4.93,1.81-7.16,3.21s-3.86,3.82-6.36,4.89c-3.14,1.36-6.42-.33-8.73-2.46l-.14-.14-.13.34a10.16,10.16,0,0,0,6.35,3.08c3.09.14,5.18-2.09,7.31-4a13.89,13.89,0,0,1,4-2.5c1.31-.55,2.67-1,4-1.59,2.59-1.23,4.53-3.52,4.31-6.53A6.3,6.3,0,0,0,116.48,201Zm23.21-1.81a10.43,10.43,0,0,0,1.85-6.64,9.05,9.05,0,0,0-9.47-8.26c0-.05,0-.1-.09-.08l-.25.1a8.67,8.67,0,0,0-1.43.22c-.13,0-.07.23.06.2s.44-.08.66-.11a9.27,9.27,0,0,0-4.37,3.53c-1.33,2.3-.52,4.74.43,7a20.09,20.09,0,0,1,1.72,8.84c-.14,2.58-1.05,5.56.69,7.82,1.34,1.72,4,1.74,5.78.67,2.47-1.51,1.06-4.37,1.22-6.65C136.67,203.36,138.4,201.29,139.69,199.23Zm-3.2,11.09c-.43,2.59-4.38,3.51-6.26,2-2.11-1.75-1.51-4.82-1.26-7.17a18.88,18.88,0,0,0-.77-7.69c-.83-2.59-2.7-5.3-1.8-8.12.72-2.27,2.89-3.85,5.07-4.69a9,9,0,0,1,9.64,6.81,9.38,9.38,0,0,1-1.08,6.73c-1.05,1.87-2.47,3.54-3.28,5.55a6.91,6.91,0,0,0-.54,2.66C136.22,207.67,136.71,209,136.49,210.32Zm-3.44,20.48a17.58,17.58,0,0,1-1.69,2.49h-.31a16.4,16.4,0,0,0,2.42-3.9,10.77,10.77,0,0,0,.13-8.84,4.31,4.31,0,0,0-3.41-2.56,6.79,6.79,0,0,0-4,1c-2.48,1.38-4.36,3.62-6.74,5.17s-5.27,2.79-7.86,4.27a19.26,19.26,0,0,0-5.18,4h0l-.5,0a21.64,21.64,0,0,1,7-5.18,47,47,0,0,0,8.77-5.28c2.18-1.82,4.45-4,7.42-4.29a4.66,4.66,0,0,1,3.44,1,6.51,6.51,0,0,1,2,3.59A12.27,12.27,0,0,1,133.05,230.8ZM171,185c-2.41,2.06-2.65,5.22-1.6,8.06a8.36,8.36,0,0,0,1.46,2.54l-.19.43a9.56,9.56,0,0,1-2.14-4.83,7.39,7.39,0,0,1,.45-4.16,7.27,7.27,0,0,1,2.57-2.9c0,.12.07.23.1.35A8.11,8.11,0,0,0,171,185Zm-25.64-35.3a4.41,4.41,0,0,0-.52,0c2.32,1.69,2.86,4.89,2,7.7a4.05,4.05,0,0,1-1.48,2.39,3.91,3.91,0,0,1-2.89.3c-1-.2-1.89-.56-2.87-.7a10,10,0,0,0-2.78,0c-.61.07-1.22.15-1.83.2a7.75,7.75,0,0,0,.26-3.39,6.21,6.21,0,0,0-2.2-3.77,1.27,1.27,0,0,0-.22.13,6.26,6.26,0,0,1,1.59,1.95,6.67,6.67,0,0,1,.24,5.11,11.21,11.21,0,0,1-3.69-.23,6.36,6.36,0,0,1-3.51-2.18,2.09,2.09,0,0,0-.2.22A6.15,6.15,0,0,0,129,159,9.57,9.57,0,0,0,134.6,160a32.47,32.47,0,0,1-1.41,3.41,63.83,63.83,0,0,0-2.68,7.86c-.83,2.68-2.06,5.33-4.56,6.83a8.9,8.9,0,0,1-8.11.45,9.26,9.26,0,0,1-3-2.16,3.72,3.72,0,0,0-.19.34,9.21,9.21,0,0,0,8.86,2.72,9.14,9.14,0,0,0,6.21-5.23c1.34-2.84,1.76-6,2.92-8.89.69-1.74,1.68-3.51,2.25-5.35H135c1.18-.11,2.35-.35,3.54-.36a15.13,15.13,0,0,1,3.57.69c1.78.42,3.63.21,4.55-1.56C148.12,156,147.91,151.84,145.38,149.74Z" style="fill:#fff"></path><path d="M162,202.47a20.88,20.88,0,0,0-4.74-.14,18.36,18.36,0,0,0-2.23.28c-.83.16-1.64.4-2.47.57-.14,0-.07.24.06.21a21,21,0,0,1,2.48-.3c.76-.06,1.51-.16,2.26-.22,1.54-.11,3.08-.21,4.63-.29A.06.06,0,0,0,162,202.47Z" style="fill:#263238"></path><path d="M162.62,199.13a43,43,0,0,0-10.39,1.66c-3.5,1-7,2.39-10.66,2.82-.14,0-.13.24,0,.22,1.75-.19,3.48-.38,5.22-.65s3.44-.7,5.15-1.08c3.59-.79,7.05-2.13,10.67-2.7C162.79,199.37,162.8,199.12,162.62,199.13Z" style="fill:#263238"></path><path d="M140.14,151.53c0,1.42,4.21,11.71,10.41,12.95,2,.4,4.7-10.53,4.7-10.53l.38-.76L161,142.53l-11.15-11.81-1.63-1.6s-1.27,3-2.81,6.78c-.07.17-.14.35-.22.53s-.18.41-.26.61c-.24.56-.48,1.14-.7,1.71s-.35.86-.52,1.33-.34.92-.52,1.38A76.7,76.7,0,0,0,140.14,151.53Z" style="fill:#ad6359"></path><path d="M145.37,135.9a23.9,23.9,0,0,0,10.26,17.29L161,142.53l-11.15-11.81-1.63-1.6S146.91,132.13,145.37,135.9Z" style="fill:#263238"></path><path d="M181.82,130.16c-4.23,20.49-17,20.28-21.4,19.36-4-.83-17.56-4.18-15.47-25s13-25.33,22.23-23.91S186.05,109.67,181.82,130.16Z" style="fill:#ad6359"></path><path d="M173.76,146.07a12.56,12.56,0,0,0,2.33-2.5c.36-.44.65-.93,1-1.4l.86-1.47a32.33,32.33,0,0,0,2.58-6.3,50.08,50.08,0,0,0,1.53-6.65l.46-3.39.32-3.42-.08,3.44-.32,3.43a43.25,43.25,0,0,1-1.44,6.74,29.36,29.36,0,0,1-2.72,6.34A16.49,16.49,0,0,1,173.76,146.07Z" style="fill:#263238"></path><path d="M180.05,124.15a14.24,14.24,0,0,1-1.31-.61,2.32,2.32,0,0,1-1.22-.87.75.75,0,0,1,.2-.89,1.86,1.86,0,0,1,1.87,0,2.64,2.64,0,0,1,1.44,1.31A.79.79,0,0,1,180.05,124.15Z" style="fill:#263238"></path><path d="M165.69,122.77a13.84,13.84,0,0,0,1.44,0,2.35,2.35,0,0,0,1.48-.26.74.74,0,0,0,.2-.88,1.83,1.83,0,0,0-1.68-.83,2.72,2.72,0,0,0-1.87.55A.8.8,0,0,0,165.69,122.77Z" style="fill:#263238"></path><path d="M167.77,128.52c0-.06-.12,0-.13.1-.25,1.41-.76,3-2.12,3.18,0,0-.05.08,0,.08C167.1,132,167.76,129.89,167.77,128.52Z" style="fill:#263238"></path><path d="M166.82,126.81c-2.21-.63-3.31,3.83-1.26,4.42S168.67,127.34,166.82,126.81Z" style="fill:#263238"></path><path d="M165.89,126.83c-.46.15-.95.51-1.43.44s-.85-.65-1.1-1.19c0-.06-.07,0-.09,0a1.69,1.69,0,0,0,.78,2.17c.81.32,1.59-.29,2-1.1C166.15,127,166.07,126.76,165.89,126.83Z" style="fill:#263238"></path><path d="M175.53,130.12c0-.05.09.09.08.15-.4,1.37-.62,3,.51,3.78,0,0,0,.09,0,.07C174.62,133.52,174.94,131.35,175.53,130.12Z" style="fill:#263238"></path><path d="M177.13,129c2.26.4,1.31,4.9-.79,4.53S175.23,128.66,177.13,129Z" style="fill:#263238"></path><path d="M178,129.49c.3.31.56.82,1,.94s.95-.27,1.36-.67c.05,0,.08,0,.06.06-.15.87-.63,1.7-1.49,1.69s-1.18-.87-1.21-1.77C177.71,129.58,177.88,129.36,178,129.49Z" style="fill:#263238"></path><path d="M164.82,139.84c.23.41.43.95.91,1.14a3.77,3.77,0,0,0,1.57.09.05.05,0,0,1,0,.09,2,2,0,0,1-2,.23,1.52,1.52,0,0,1-.71-1.53C164.67,139.78,164.78,139.78,164.82,139.84Z" style="fill:#263238"></path><path d="M171.79,136.18s-.2,2.14-.43,3.11c0,.1-.27.08-.6,0h0a4.79,4.79,0,0,1-4.11-2.79.11.11,0,0,1,.18-.1,7.2,7.2,0,0,0,4,2.2c.13-.25.21-3.67.37-3.65a8.78,8.78,0,0,1,2.1,1c.54-4.44.37-8.93,1-13.35a.14.14,0,0,1,.27,0c.52,4.69,0,9.82-.43,14.42C174,137.64,172.14,136.44,171.79,136.18Z" style="fill:#263238"></path><path d="M146.14,126.42c2.27.25,9.15-4.94,11.16-15.74,0,0-2.47,9.57-3.44,10.88s3.85-2.93,5.59-11.62c0,0,4.25,4.31,8.18,6.17s6.46,2.24,6.81,2-5.41-3.19-6.73-5.36c0,0,10.12,7,15.11,8.2.58.14,3.31-11.77-3.65-18.2s-20.28-3-24.15-.35c0,0-4-.11-9.24,5S143.7,126.16,146.14,126.42Z" style="fill:#263238"></path><path d="M162.3,134.41a6.57,6.57,0,1,1,8.72-5.63h0a6.58,6.58,0,0,1-7.12,6A7,7,0,0,1,162.3,134.41Zm4.06-11.57a5.69,5.69,0,1,0,3.78,5.87A5.73,5.73,0,0,0,166.36,122.84Z" style="fill:#0A6D35"></path><path d="M177,137.62c-2.37-.83-3.67-4-2.92-7.36a7.81,7.81,0,0,1,2.35-4.18,4.1,4.1,0,0,1,6.84,1.53,7.88,7.88,0,0,1,.35,4.79c-.79,3.53-3.58,5.93-6.21,5.34A2.77,2.77,0,0,1,177,137.62Zm3.41-11.75a1.68,1.68,0,0,0-.32-.09,3.5,3.5,0,0,0-3.08,1,7.05,7.05,0,0,0-2.08,3.71c-.68,3.07.51,6,2.68,6.43s4.47-1.61,5.15-4.67a7,7,0,0,0-.3-4.25A3.63,3.63,0,0,0,180.44,125.87Z" style="fill:#0A6D35"></path><path d="M170.64,129.48l-.41-.78c1.16-.6,3.65-1.2,4.84.83l-.76.44C173.25,128.16,170.74,129.42,170.64,129.48Z" style="fill:#0A6D35"></path><path d="M141.71,124.74l-.67-.57c.26-.31,2.63-3.06,4.61-2.94s13.1,3.76,13.57,3.91L159,126c-3.22-1-11.92-3.79-13.35-3.87S142.35,124,141.71,124.74Z" style="fill:#0A6D35"></path><path d="M143.35,132.07a5.05,5.05,0,0,0,.86.52,3.3,3.3,0,0,0,.94.3,2.83,2.83,0,0,0,1.27,0,3.66,3.66,0,0,0,.93-.35,4.24,4.24,0,0,0,1.09-.9l.49-5.69s-2.51-7.57-5.81-6.85S140.39,129.84,143.35,132.07Z" style="fill:#ad6359"></path><path d="M143.35,121.94s-.08,0,0,.09c2.05,1.64,2.64,4.18,2.83,6.68a2,2,0,0,0-2.65-1.35c-.07,0,0,.14,0,.15a2.18,2.18,0,0,1,2.08,1.41,10.86,10.86,0,0,1,.54,2.18c.05.25.46.25.45,0V131C147.54,128.06,146.46,123.2,143.35,121.94Z" style="fill:#263238"></path><path d="M143.88,131.31a1,1,0,0,0,.88,1.05,1,1,0,0,0,.18-1.93A1,1,0,0,0,143.88,131.31Z" style="fill:#fff"></path><path d="M142.39,129.34a.69.69,0,1,0,.75-.62A.69.69,0,0,0,142.39,129.34Z" style="fill:#fff"></path><polygon points="156.33 115.88 151.66 110.83 150.41 112.17 155.61 116.62 156.33 115.88" style="fill:#0A6D35"></polygon><polygon points="155.24 117.26 149.75 113.12 148.76 114.66 154.67 118.12 155.24 117.26" style="fill:#0A6D35"></polygon><path d="M126.6,158.42c-12.83,13.75-44,65.9-34.13,75.41s64.84-3.29,80.27-10.64c4.59-2.19-12.86-30.81-18.25-31.47-4.49-.56-27.46,9.94-28.12,8.62-.75-1.49,2.9-12.51,8.42-32.46C141.16,144.88,132.27,152.35,126.6,158.42Z" style="fill:#ad6359"></path><path d="M177.29,182.48c11.16-1.55,14.26-.24,23-6.55,5.72-4.14,10.82-2.27,7.56,4.31C202.49,191,188.52,196,183.17,196.38Z" style="fill:#ad6359"></path><path d="M147.66,193.22s12.54-7,24.26-9.79c8.11-2,26.22-4.26,43.56,13.62,4.11,4.24,7,13.19-2.27,8.71-6.56-3.19-9.75-7.19-13.9-8.35,0,0,2.27,11.82-2.14,15.78a107.67,107.67,0,0,1-12.25,9.5,22.52,22.52,0,0,1-2-2.13s-4.47,3.3-12.88,2.5Z" style="fill:#ad6359"></path><path d="M180,182.79c3.87,2,12,6.45,17.42,12.38,6,6.59,15.79,20.91,10.88,25.29-3.6,3.21-7.82-1.93-7.82-1.93s2.8,6.77-1.09,9c-3.54,2-6.57-2.17-6.57-2.17s1,4.4-2.79,5.66c-4.55,1.52-5.88-7.94-11.82-10.38C176.84,220.05,180,182.79,180,182.79Z" style="fill:#ad6359"></path><path d="M189.36,200.35c3.33,2.5,9.45,10.12,11.14,18,0,.18-.08.3-.14.15a87.52,87.52,0,0,0-11.06-18.1A0,0,0,0,1,189.36,200.35Z" style="fill:#263238"></path><path d="M182.88,206.6c2.66,2.46,8.61,10.59,10.05,18.64,0,.18-.09.3-.15.14a93.86,93.86,0,0,0-10-18.72S182.85,206.57,182.88,206.6Z" style="fill:#263238"></path><path d="M199.31,197.34c3.64,1.07,6,2.85,9.07,5a49.86,49.86,0,0,0,4.68,3c1.48.8,3.67,2,5.24.76a3,3,0,0,0,.67-3,14.38,14.38,0,0,0-2-4.14c0-.05,0-.11.08-.06a20.72,20.72,0,0,1,2.18,3.68,4.79,4.79,0,0,1,.33,2.84c-.53,2-2.9,2.27-4.57,1.72a16.07,16.07,0,0,1-2.86-1.39c-.88-.5-1.74-1-2.58-1.62-1.73-1.17-3.39-2.43-5.1-3.62a48.25,48.25,0,0,0-5.2-3A.07.07,0,0,1,199.31,197.34Z" style="fill:#263238"></path><path d="M206.92,210.13a114.26,114.26,0,0,0-7.68-12.71c-.05,0,0-.11.07-.07,2.83,2.69,7.39,9.82,8.45,12.11s2.26,5.15,2.26,7.66c0,3.8-2.52,4.52-3.45,4.71a4.93,4.93,0,0,1-3.24-.53,10.1,10.1,0,0,1-2.93-2.75c0-.06,0-.13.08-.08,1.31,1.5,3.5,3,5.57,2.71a3.5,3.5,0,0,0,2.35-1.27,4.47,4.47,0,0,0,.6-3.06A20.75,20.75,0,0,0,206.92,210.13Z" style="fill:#263238"></path><path d="M147.66,193.22l17.58,37s-68.77,15.45-74.71,3.47,20.78-58.82,32.81-72.47c13.95-15.81,15.73-10.44,12.66,3.58-3.22,14.68-9.43,35.9-9.43,35.9Z" style="fill:#0A6D35"></path><path d="M165.24,230.21s-4.33,1-10.91,2.24l-.17,0-.8.15-.28.06c-3,.56-6.33,1.17-9.93,1.78l-.2,0c-4.72.79-9.82,1.57-14.93,2.2l-.47.06a150.16,150.16,0,0,1-23.66,1.4h-.28c-6.73-.33-11.67-1.63-13.08-4.47C88.72,230,90,223.15,92.86,215c0-.12.08-.24.13-.37A154.35,154.35,0,0,1,100,198.41c.06-.13.12-.25.19-.38.26-.53.52-1.06.79-1.58,0-.1.1-.19.14-.28,2.17-4.24,4.49-8.46,6.84-12.48l.16-.26c1.73-3,3.48-5.8,5.19-8.45.07-.11.14-.23.22-.34a120.72,120.72,0,0,1,9.77-13.43c1.36-1.54,2.6-2.87,3.73-4l.21-.21a29.57,29.57,0,0,1,5.39-4.53l.23-.13c4-2.28,5,.81,4.08,7.12,0,.11,0,.21,0,.32-.21,1.51-.53,3.2-.93,5-1.33,6.08-3.18,13.28-4.89,19.63,0,.13-.06.25-.1.38-1.23,4.57-2.38,8.67-3.2,11.56,0,.16-.09.31-.13.46-.68,2.41-1.11,3.87-1.11,3.87l2-.69.27-.1,12.26-4.34.28-.1,6.32-2.24.87,1.82.1.22,8.63,18.16.25.52,1.64,3.45.28.59Z" style="fill:#0A6D35"></path><path d="M159.15,217.39a5.91,5.91,0,0,1-.21,1.66c-.67,2.48-2.42,4.4-3.64,6.6a9.21,9.21,0,0,0-1.14,3.21,23,23,0,0,0,0,3.62l.17,0a15.49,15.49,0,0,1,.25-4.46c.79-2.78,3-4.83,4.15-7.44a8.89,8.89,0,0,0,.7-2.57Zm-6.72-3.34a3.63,3.63,0,0,1,1.08-.67,4.5,4.5,0,0,1,2.81,0,3.9,3.9,0,0,1,1.19.59l-.25-.52a4.72,4.72,0,0,0-4.41-.06,3.32,3.32,0,0,0-.58.4,13.28,13.28,0,0,0-2-2.43,34,34,0,0,1-4.41-4.4,8.07,8.07,0,0,1,2.74-11.67l-.1-.22a8,8,0,0,0-3.68,4.06,8.76,8.76,0,0,0-.44,5.16,9.94,9.94,0,0,0,3.09,4.87c1.6,1.52,3.38,2.87,4.57,4.76,0,0,0,0,0,0a6.71,6.71,0,0,0-1.35,1.9,20.4,20.4,0,0,1-2,3.61c-1.59,2-3.77,3.44-5.33,5.46a8.17,8.17,0,0,0-1.57,6.8,8.76,8.76,0,0,0,1.1,2.81l.2,0a8.3,8.3,0,0,1-.31-8.16c1.1-2,3-3.44,4.6-5a14.33,14.33,0,0,0,2.1-2.44c.63-1,1-2.05,1.54-3.06a6.06,6.06,0,0,1,1.17-1.6,11.87,11.87,0,0,1,1.63,6.45c-.16,4.06-2.32,8.14-.8,12l.28-.06a8.42,8.42,0,0,1-.59-3.36c.07-2.39.89-4.68,1.24-7A12.25,12.25,0,0,0,152.43,214.05Zm-35.95-13c-1.74-.32-3.53-.17-5.27-.46-.36-.06-.71-.14-1.06-.23a15.26,15.26,0,0,1,1.76-5.39c1.18-1.84,2.59-3.48,2.65-5.79a5,5,0,0,0-2.68-4.59,9.72,9.72,0,0,0-3.72-1.15l-.16.26a10.17,10.17,0,0,1,2.92.72,5,5,0,0,1,3.36,4.37c.09,2.12-1.06,3.77-2.21,5.43a12.87,12.87,0,0,0-2,5.24c0,.26-.1.54-.16.83a15.45,15.45,0,0,1-3.65-1.56,27,27,0,0,0-4.68-2.44l-.37-.11c0,.09-.09.18-.14.28a16,16,0,0,1,3.63,1.71,23.76,23.76,0,0,0,3.91,2,11.22,11.22,0,0,0,1.25.38c-.32,1.71-.81,3.69-2.46,4.3-1.93.71-3.89-.73-5-2.21a16.73,16.73,0,0,1-2.16-4.63c-.07.13-.13.25-.19.38a18.1,18.1,0,0,0,1.79,4,5.74,5.74,0,0,0,4.23,3c2.24.17,3.28-1.68,3.78-3.59.09-.37.18-.73.25-1.1a16.17,16.17,0,0,0,2.85.4,13.57,13.57,0,0,1,5.07.74,5.9,5.9,0,0,1,.35,10.57c-2.24,1.38-4.93,1.81-7.16,3.21s-3.86,3.82-6.36,4.89c-3.14,1.36-6.42-.33-8.73-2.46a27.89,27.89,0,0,1-3.12-3.4c0,.13-.09.25-.13.37.38.48.78.95,1.19,1.4,2.15,2.38,4.76,4.76,8.14,4.91,3.09.14,5.18-2.09,7.31-4a13.89,13.89,0,0,1,4-2.5c1.31-.55,2.67-1,4-1.59,2.59-1.23,4.53-3.52,4.31-6.53A6.3,6.3,0,0,0,116.48,201Zm13.82-16.47c-.13,0-.07.23.06.2s.44-.08.66-.11a9.27,9.27,0,0,0-4.37,3.53c-1.33,2.3-.52,4.74.43,7,.22.53.43,1.07.6,1.61,0-.15.09-.3.13-.46-.89-2.27-2.19-4.63-1.41-7.07A7.88,7.88,0,0,1,131,184.8c0-.13.07-.25.1-.38A5.76,5.76,0,0,0,130.3,184.57Zm9.39,14.66a12.59,12.59,0,0,0,1.65-3.77l-.28.1a10.54,10.54,0,0,1-1,2.58c-1.05,1.87-2.47,3.54-3.28,5.55a6.91,6.91,0,0,0-.54,2.66c0,1.32.5,2.65.28,4-.43,2.59-4.38,3.51-6.26,2-2.11-1.75-1.51-4.82-1.26-7.17a18.86,18.86,0,0,0-.17-5.2l-.27.1a17.59,17.59,0,0,1,.27,4.05c-.14,2.58-1.05,5.56.69,7.82,1.34,1.72,4,1.74,5.78.67,2.47-1.51,1.06-4.37,1.22-6.65C136.67,203.36,138.4,201.29,139.69,199.23Zm-6.64,31.57a22,22,0,0,1-5,5.9l-.47.06.85-.73a19.52,19.52,0,0,0,5.07-6.65,10.77,10.77,0,0,0,.13-8.84,4.31,4.31,0,0,0-3.41-2.56,6.79,6.79,0,0,0-4,1c-2.48,1.38-4.36,3.62-6.74,5.17s-5.27,2.79-7.86,4.27a16.75,16.75,0,0,0-6.36,5.62,9.71,9.71,0,0,0-1.34,4.15h-.28a9.42,9.42,0,0,1,1.48-4.66c1.82-2.88,4.84-4.74,7.79-6.29a47,47,0,0,0,8.77-5.28c2.18-1.82,4.45-4,7.42-4.29a4.66,4.66,0,0,1,3.44,1,6.51,6.51,0,0,1,2,3.59A12.27,12.27,0,0,1,133.05,230.8Zm3.82-71.35c-.61.07-1.22.15-1.83.2a7.75,7.75,0,0,0,.26-3.39,6.28,6.28,0,0,0-2.4-3.94l-.23.13a6.35,6.35,0,0,1,1.8,2.12,6.67,6.67,0,0,1,.24,5.11,11.21,11.21,0,0,1-3.69-.23,6.33,6.33,0,0,1-3.74-2.47l-.21.21A6.17,6.17,0,0,0,129,159,9.57,9.57,0,0,0,134.6,160a32.47,32.47,0,0,1-1.41,3.41,63.83,63.83,0,0,0-2.68,7.86c-.83,2.68-2.06,5.33-4.56,6.83a8.9,8.9,0,0,1-8.11.45,9.66,9.66,0,0,1-4.27-3.93c-.08.11-.15.23-.22.34a10.51,10.51,0,0,0,2.26,2.63,9.27,9.27,0,0,0,8,1.86,9.14,9.14,0,0,0,6.21-5.23c1.34-2.84,1.76-6,2.92-8.89.69-1.74,1.68-3.51,2.25-5.35H135c.64-.06,1.28-.16,1.92-.24,0-.11,0-.21,0-.32Z" style="fill:#fff"></path><path d="M105.67,210.54a78.61,78.61,0,0,1,10-5.89,76.76,76.76,0,0,1,10.66-4.28c2.08-.69,4.19-1.28,6.29-1.88a.05.05,0,0,1,0,.1,99.2,99.2,0,0,0-10.77,4.2q-5.25,2.34-10.41,4.86c-1.94,1-3.84,2-5.76,3C105.65,210.72,105.59,210.59,105.67,210.54Z" style="fill:#263238"></path><path d="M147.48,193.11c-.35.09-19.16,6.3-19.77,6.59.07-.28,3.45-10.29,4-11.75l.15-.44c.34-.65.68-1.3,1-2,.41-.85.81-1.71,1.21-2.57,0,0,0-.05,0,0l-1.32,2.51c-.2.39-.38.78-.57,1.18.33-1,.65-2.08,1-3.12.5-1.66.95-3.33,1.4-5,0,0-.06-.07-.08,0-1,2.92-2.09,5.8-3.1,8.72s-4.87,13.64-4.84,13.64,20.71-7.31,21.11-7.48A.13.13,0,0,0,147.48,193.11Z" style="fill:#263238"></path><path d="M148.75,217.24c-1.94-4.13-3.84-8.27-5.93-12.33-1.19-2.3-2.36-4.62-3.57-6.91-.05-.09-.2,0-.16.07,1.77,4.22,3.57,8.45,5.54,12.59s3.89,8.25,5.9,12.34c1.15,2.33,2.36,4.61,3.65,6.87,0,0,.1,0,.08,0C152.62,225.55,150.69,221.4,148.75,217.24Z" style="fill:#263238"></path><path d="M166.13,230.79c-.69-1.14-1.56-2.78-2.29-3.89-.2-.29-.42-.23-.27.07.53,1,1,2.2,1.48,3.26-1,.19-1.94.37-2.9.57l-3.35.7q-3.27.67-6.56,1.28c-4.45.82-8.9,1.55-13.38,2.18a260.74,260.74,0,0,1-27.05,2.54c-2.53.09-5.07.14-7.6.1a71.3,71.3,0,0,1-7.48-.36.07.07,0,0,0,0,.13,42,42,0,0,0,6.51.84q3.44.16,6.89.14c4.57-.06,9.14-.35,13.69-.77,9-.83,18-2.05,26.94-3.63q3.75-.66,7.49-1.41c1.26-.25,2.51-.51,3.77-.78S166.25,231,166.13,230.79Z" style="fill:#263238"></path></g><g id="freepik--Plant--inject-2"><path d="M408,254.34s25.45-3.56,19.5-34.27C427.52,220.07,399.09,226.45,408,254.34Z" style="fill:#0A6D35"></path><path d="M408,254.34s25.45-3.56,19.5-34.27C427.52,220.07,399.09,226.45,408,254.34Z" style="opacity:0.1"></path><path d="M409.31,247.93c.5-1.55,1.08-3.08,1.73-4.57,0-.2,0-.4.07-.59,0-.42.07-.84.1-1.26.07-.92.13-1.84.19-2.75.1-1.84.22-3.68.25-5.51a.07.07,0,0,1,.15,0c0,1.84.05,3.68,0,5.52,0,.91-.09,1.83-.15,2.75,0,.2,0,.4-.05.61a55.21,55.21,0,0,1,5.11-8.73,44.75,44.75,0,0,1,2.78-3.52c1-1.16,2.08-2.27,3.11-3.42.07-.07.18,0,.11.12a45.14,45.14,0,0,0-4.91,6.51c-.77,1.17-1.5,2.38-2.2,3.6l.24-.1c.3-.12.6-.25.91-.36l2.08-.79,4.09-1.52c.08,0,.14.11.05.14-1.35.54-2.69,1.11-4,1.69l-2,.84c-.33.15-.67.28-1,.41a2.45,2.45,0,0,1-.67.24c-.52.92-1,1.85-1.49,2.79a65.48,65.48,0,0,0-3.11,7.33l-.18.53a14.74,14.74,0,0,1,2.08-1c.88-.4,1.76-.79,2.63-1.2,1.79-.82,3.56-1.65,5.27-2.61a.08.08,0,0,1,.08.13c-1.75,1-3.47,2-5.22,2.92-.87.48-1.75.94-2.65,1.38a8.24,8.24,0,0,1-2.39.95,30.79,30.79,0,0,0-1.67,7.22c-.28,3.47-.25,7-.33,10.45a0,0,0,1,1-.09,0c-.26-3.16-.4-6.34-.41-9.51A27.35,27.35,0,0,1,409.31,247.93Z" style="fill:#263238"></path><path d="M413.23,229.87a30.71,30.71,0,0,1,.25,5.42c0,.05-.07.05-.08,0-.1-1.8-.12-3.59-.32-5.38C413.06,229.81,413.22,229.77,413.23,229.87Z" style="fill:#263238"></path><path d="M420.5,231.41a19.46,19.46,0,0,0,3.27-1.61c.09-.05.16.09.08.14a12.75,12.75,0,0,1-3.31,1.58C420.48,231.53,420.44,231.44,420.5,231.41Z" style="fill:#263238"></path><path d="M407.21,303.1c0-2.81.07-5.62.11-8.43.05-9.34.13-18.67.3-28q.19-11.12.51-22.23a.11.11,0,0,1,.07-.1l0-6.07s.06-.08.12-.07.12,0,.12.07c0,2,0,4.06,0,6.09,0,0,.06.05.06.08.37,13.2.71,26.39.78,39.58,0,2.69,0,5.37,0,8.05q.14,12.9.1,25.81l0,4.11c0,7.87-.08,15.74-.08,23.61,0,.42-.48.63-1,.65s-1.17-.2-1.17-.69c0-8.68-.06-17.36-.06-26C407.19,314,407.17,308.57,407.21,303.1Z" style="fill:#263238"></path><path d="M417.84,294.56s12.23-9.06,23.85-2.94,13.43,29.74,13.43,29.74-17.05,2.44-27.79-7.78C417,303.73,417.84,294.56,417.84,294.56Z" style="fill:#0A6D35"></path><path d="M414.5,295.12a14.59,14.59,0,0,1,7.09-.92,10.74,10.74,0,0,1,1.5-.15l1.72-.13,3.57-.25c2.42-.18,4.84-.33,7.25-.57.08,0,.1.14,0,.15-2.38.31-4.76.65-7.15.89-1.23.12-2.46.25-3.69.34l-.9.08c.37.09.73.17,1.09.27a29,29,0,0,1,5.55,2.26c1,.17,1.92.44,2.86.66,1.52.36,3,.75,4.53,1.14,3,.78,5.91,1.66,8.86,2.52.1,0,0,.17,0,.14-2.95-.72-5.91-1.38-8.87-2.08l-4.3-1c-.37-.1-.75-.18-1.12-.26a35.58,35.58,0,0,1,8.69,7.56,47,47,0,0,1,6.05,9.53c0,.09-.08.17-.13.08a46.75,46.75,0,0,0-7.32-9.6c.06.17.11.33.16.49.23.72.46,1.44.68,2.16.46,1.45.91,2.88,1.34,4.33,0,.1-.11.13-.15,0-.51-1.4-1-2.8-1.49-4.21-.25-.68-.49-1.37-.73-2.06-.13-.36-.25-.72-.37-1.08,0-.11-.08-.22-.12-.33a43.28,43.28,0,0,0-4.33-3.69,32.78,32.78,0,0,0-6.5-3.73c0,.21.08.43.12.63.12.56.25,1.11.36,1.67q.36,1.74.69,3.48c.46,2.37.75,4.77,1.19,7.14a.08.08,0,0,1-.15,0c-.55-2.39-1.25-4.73-1.78-7.12-.27-1.19-.54-2.38-.79-3.58-.11-.56-.22-1.12-.34-1.68-.06-.31-.13-.62-.17-.94l-.66-.27c-3.21-1.19-6.76-2.05-10.18-1.39a10,10,0,0,0-7.37,5.9c-.11.26-.53.1-.47-.17A9.47,9.47,0,0,1,414.5,295.12Z" style="fill:#263238"></path><path d="M433.23,305.21c.35,1.55.69,3.1,1,4.65a34.93,34.93,0,0,1,.85,4.52c0,.06-.08.06-.1,0a34.89,34.89,0,0,1-1-4.55l-.9-4.6A.08.08,0,0,1,433.23,305.21Z" style="fill:#263238"></path><path d="M445.07,309.15c1.56.79,3.07,1.69,4.69,2.33a.08.08,0,1,1-.06.14,50.21,50.21,0,0,1-4.67-2.41A0,0,0,0,1,445.07,309.15Z" style="fill:#263238"></path><path d="M415.08,277.91s15,1,21.92-8.91,5.39-23.94,5.39-23.94-15.71,1.91-21.95,9S415.08,277.91,415.08,277.91Z" style="fill:#0A6D35"></path><path d="M408.07,292.67c.51-1.6,1.15-3.18,1.76-4.75s1.2-3,1.86-4.48a93.58,93.58,0,0,1,4.48-8.82c1.06-1.81,2.19-3.58,3.35-5.32,0-.26.08-.53.12-.79l.21-1.39c.15-.95.31-1.89.47-2.84.35-2.06.77-4.11,1.1-6.18,0-.1.17-.1.16,0-.31,2-.51,4.1-.8,6.14-.14,1-.27,2-.42,3-.06.36-.11.72-.17,1.08a105.09,105.09,0,0,1,7.4-9.59c.35-.42.72-.82,1.09-1.23,0-.11.09-.22.14-.34.11-.28.22-.57.32-.85.22-.6.44-1.19.65-1.79.42-1.17.8-2.35,1.11-3.55a.08.08,0,1,1,.15,0c-.3,1.23-.62,2.45-1,3.67-.17.58-.36,1.16-.57,1.73a2.49,2.49,0,0,1-.11.29c1.92-2.08,3.91-4.09,5.92-6.07a.08.08,0,0,1,.11.11,107.38,107.38,0,0,0-10.6,13,9,9,0,0,1,1.11-.28c1.15-.22,2.31-.39,3.48-.53,2.43-.31,4.86-.62,7.29-1,.1,0,.14.14,0,.16-2.32.45-4.62,1-6.92,1.5-1.08.25-2.17.46-3.27.68a21.22,21.22,0,0,0-2.62.75l-.73,1c-1.1,1.6-2.15,3.23-3.19,4.87l1.53-.29q1.74-.35,3.48-.63c2.28-.37,4.56-.77,6.81-1.28a.08.08,0,1,1,0,.15c-2.28.53-4.55,1.16-6.82,1.77-1.1.29-2.2.55-3.31.8l-1.66.36a3.46,3.46,0,0,1-.67.11q-3.29,5.33-6.14,10.87-1.25,2.44-2.41,4.93c-.8,1.7-1.48,3.43-2.22,5.15C408.49,293.19,407.94,293.05,408.07,292.67Z" style="fill:#263238"></path><path d="M423.37,258.3c.29-1.43.59-2.85.91-4.27,0-.1.16-.06.14,0-.28,1.4-.55,2.81-.8,4.21s-.46,2.83-.85,4.19c0,0,0,0,0,0A30.9,30.9,0,0,1,423.37,258.3Z" style="fill:#263238"></path><path d="M432.1,257.88a22.71,22.71,0,0,1,2.15-.91l1.13-.44.58-.23a2.53,2.53,0,0,0,.63-.28c.11-.08.18.12.07.13a2.73,2.73,0,0,0-.64.27l-.56.25-1.09.49a23,23,0,0,1-2.21.87C432.07,258.06,432,257.92,432.1,257.88Z" style="fill:#263238"></path><path d="M399.78,266.15s-9.06-16.91-22.83-19.52-22.2,11.55-22.2,11.55S364.8,271,377.44,273.24,399.78,266.15,399.78,266.15Z" style="fill:#0A6D35"></path><path d="M367.72,254.2a37.23,37.23,0,0,1,10.8.13l-.61-.33c-1-.52-2-1-3.05-1.57-2.12-1.1-4.26-2.27-6.47-3.16a.08.08,0,1,1,.06-.14c2.16,1,4.39,1.84,6.55,2.84,1.08.5,2.14,1,3.2,1.57.67.36,1.43.7,2.09,1.13a37.88,37.88,0,0,1,8.76,2.91l-1.72-1.88c-1.29-1.4-2.55-2.88-4-4.16-.07-.06,0-.17.11-.1,1.44,1.31,3,2.52,4.36,3.88.68.66,1.33,1.34,2,2.05.32.35.63.71.93,1.09a36.19,36.19,0,0,1,18.46,24.92c0,.1-.11.15-.14.05a41.57,41.57,0,0,0-10.13-17.13,39.76,39.76,0,0,0-18.44-10.67,40.5,40.5,0,0,0-12.74-1.16C367.57,254.49,367.55,254.23,367.72,254.2Z" style="fill:#263238"></path><path d="M354.75,258.18S364.8,271,377.44,273.24c9.64,1.71,17.57-3.32,20.79-5.79l.69-1.14s-6.52-5.5-18.85-8.67S354.75,258.18,354.75,258.18Z" style="opacity:0.1"></path><path d="M375.72,248.18a32.91,32.91,0,0,1,3.06,2,20.46,20.46,0,0,1,2.66,2.43c.07.08,0,.18-.12.12-.92-.8-1.83-1.59-2.78-2.34a29.58,29.58,0,0,0-2.9-2.09C375.56,248.26,375.64,248.12,375.72,248.18Z" style="fill:#263238"></path><path d="M368.17,251c.51.21,1,.39,1.54.61l1.53.63c.11.05.06.23-.05.18l-1.54-.62c-.51-.21-1-.45-1.53-.65C368,251.15,368.07,251,368.17,251Z" style="fill:#263238"></path><path d="M401.58,287.43s-2.42,16.77-15,22.64-28,0-28,0S364.61,273.78,401.58,287.43Z" style="fill:#0A6D35"></path><path d="M367.25,299.16c1.17-.13,2.32-.33,3.47-.54l1.7-.32c.29-.06.58-.13.88-.18.34-.32.68-.64,1-.95a51.19,51.19,0,0,1,7.71-5.59,44.7,44.7,0,0,1,4.62-2.37h-.23l-4.16.18c-2.76.13-5.53.19-8.3.37-.1,0-.09-.15,0-.16,2.77-.19,5.53-.49,8.31-.73l4-.36,2.08-.18c.18,0,.35,0,.53-.06.72-.26,1.44-.52,2.18-.75a19.71,19.71,0,0,1,10.68-.59c3.17.82,6.34,2.9,7.16,6.24,0,.12-.15.2-.2.08-1.18-2.8-4.29-4.2-7.09-4.78a16.84,16.84,0,0,0-5.71-.11,14.19,14.19,0,0,1-.63,2.53l-1.05,3.54c-.72,2.36-1.51,4.69-2.2,7.05a.08.08,0,0,1-.15-.05c.58-2.35,1.08-4.72,1.64-7.08.28-1.16.57-2.32.86-3.47a18.88,18.88,0,0,1,.64-2.39,32.58,32.58,0,0,0-3.28.77,48.37,48.37,0,0,0-5.71,2.1c-.19,1.19-.45,2.38-.73,3.56-.34,1.48-.73,2.95-1.2,4.39a.07.07,0,0,1-.14,0l.06-.27h0c.28-1.37.59-2.74.88-4.11.23-1.1.44-2.21.68-3.31-1.56.7-3.1,1.47-4.59,2.32,0,.35-.12.7-.17,1-.09.57-.19,1.15-.3,1.72-.24,1.29-.49,2.58-.8,3.86a61.63,61.63,0,0,1-2.17,7.29.09.09,0,0,1,0,.1l-.08.09c-.05.06-.14,0-.12-.08.58-2.49,1.25-4.95,1.79-7.45.28-1.24.55-2.49.8-3.74.13-.62.24-1.25.36-1.88,0-.17.06-.36.09-.56A52.9,52.9,0,0,0,368,304.4c-.09.1-.27,0-.19-.15,1-1.26,1.92-2.5,3-3.67.63-.68,1.29-1.33,2-2l-.21,0-1.77.27c-1.17.15-2.34.27-3.51.4C367.19,299.32,367.15,299.17,367.25,299.16Z" style="fill:#263238"></path><path d="M376.12,304.85h0c0-.15,0-.3.07-.44a5.62,5.62,0,0,0,.15-.55h0c.26-1.13.47-2.25.68-3.39,0-.08.14-.05.13,0a13.44,13.44,0,0,1-1,4.38,0,0,0,0,1-.09,0Z" style="fill:#263238"></path><path d="M386.67,304.58a.08.08,0,0,1,.08-.07c.35-1.49.69-3,1-4.47.16-.79.32-1.57.47-2.36.09-.42.16-.85.24-1.27a3.77,3.77,0,0,1,.27-1.1.08.08,0,0,1,.14,0,7.28,7.28,0,0,1-.31,2.25c-.16.82-.32,1.63-.5,2.45-.36,1.65-.78,3.3-1.24,4.93,0,.09-.18.07-.17,0S386.66,304.7,386.67,304.58Z" style="fill:#263238"></path><path d="M368.4,294.33c2.31-.32,4.61-.65,6.92-.93.09,0,.13.14,0,.15-2.3.34-4.6.63-6.91.93C368.34,294.49,368.3,294.34,368.4,294.33Z" style="fill:#263238"></path><path d="M408,248.09s7.72-33.85-28.66-47.55C379.38,200.54,369.3,245.1,408,248.09Z" style="fill:#0A6D35"></path><path d="M400.19,228.89l-.39-.24c-.69-.37-1.37-.76-2.06-1.14l-4.22-2.36c-2.77-1.56-5.51-3.17-8.31-4.69-.09-.05,0-.18.08-.13,2.8,1.52,5.65,2.94,8.47,4.43l4.17,2.21,1.7.9c-1.21-2.3-2.51-4.56-3.93-6.73-1.9-2.9-4-5.67-6.15-8.37a.12.12,0,0,1,.18-.17,58.39,58.39,0,0,1,8.41,10.31c0-.12,0-.24,0-.35-.05-.84-.07-1.68-.08-2.53,0-1.65.06-3.31,0-5,0-.1.15-.09.15,0,.07,1.62.27,3.25.36,4.87,0,.81.08,1.62.1,2.44,0,.43.06.93,0,1.42.75,1.19,1.47,2.4,2.15,3.62a63.63,63.63,0,0,1,3.25,6.82c0-.84.09-1.68.14-2.53.11-1.85.33-3.7.41-5.55,0-.1.16-.1.16,0,0,1.86,0,3.71,0,5.57,0,.92-.06,1.85-.12,2.78l-.06,1a61.79,61.79,0,0,1,2.74,9.3,100.48,100.48,0,0,1,1.36,10.23s0,0,0,0a55.62,55.62,0,0,0-1.93-9.12q-.67-2.4-1.44-4.77c-1.51-.71-3-1.6-4.42-2.41l-4.57-2.5c-3-1.66-6.06-3.35-9.19-4.82-.1-.05,0-.18.08-.14,3.17,1.44,6.37,2.81,9.48,4.37,1.55.78,3.07,1.61,4.59,2.46,1.26.71,2.56,1.43,3.76,2.25-.35-1.06-.72-2.11-1.12-3.14A89.36,89.36,0,0,0,400.19,228.89Z" style="fill:#263238"></path><path d="M403.26,221.15c0-.1.16-.09.15,0-.13,1.93-.19,3.86-.4,5.78a.09.09,0,0,1-.17,0C402.91,225,403.12,223.08,403.26,221.15Z" style="fill:#263238"></path><path d="M385.82,227.62c2.27.91,4.57,1.78,6.84,2.73a.06.06,0,0,1,0,.11c-2.29-.86-4.56-1.8-6.85-2.69C385.68,227.73,385.72,227.58,385.82,227.62Z" style="fill:#263238"></path><path d="M382.36,212a61.89,61.89,0,0,1,6.47,3.47c.1.07,0,.23-.1.17-2.11-1.24-4.26-2.42-6.45-3.51C382.19,212.09,382.27,212,382.36,212Z" style="fill:#263238"></path><rect x="382.91" y="332.21" width="52.46" height="55.3" transform="translate(818.28 719.72) rotate(180)" style="fill:#37474f"></rect><rect x="436.3" y="351.78" width="2.68" height="94.72" style="fill:#263238"></rect><rect x="379.58" y="351.78" width="2.68" height="94.72" style="fill:#263238"></rect><rect x="406.51" y="351.78" width="2.68" height="94.72" style="fill:#263238"></rect><rect x="380.92" y="383.96" width="56.72" height="7.66" transform="translate(818.56 775.58) rotate(180)" style="fill:#263238"></rect></g><g id="freepik--Table--inject-2"><rect x="78.73" y="234.8" width="358.54" height="12.75" style="fill:#37474f"></rect><rect x="78.73" y="242.58" width="358.54" height="4.98" style="fill:#455a64"></rect><polygon points="91.59 446.46 86.44 446.46 101.44 247.55 114.59 247.55 91.59 446.46" style="fill:#455a64"></polygon><polygon points="114.59 247.56 113.05 259.53 100.44 259.53 101.44 247.56 114.59 247.56" style="fill:#263238"></polygon><polygon points="424.41 446.46 429.56 446.46 414.56 247.55 401.41 247.55 424.41 446.46" style="fill:#455a64"></polygon><polygon points="401.41 247.56 402.95 259.53 415.56 259.53 414.56 247.56 401.41 247.56" style="fill:#263238"></polygon></g><g id="freepik--Sheets--inject-2"><rect x="339.4" y="167.38" width="47.09" height="67.42" style="fill:#ebebeb"></rect><rect x="386.49" y="167.38" width="17.9" height="67.42" style="fill:#c7c7c7"></rect><polygon points="339.4 183 386.49 183 349.71 184.16 339.4 183" style="fill:#c7c7c7"></polygon><polygon points="386.49 229.34 339.4 229.34 376.18 230.5 386.49 229.34" style="fill:#c7c7c7"></polygon><polygon points="386.49 191.8 339.4 191.8 376.18 192.96 386.49 191.8" style="fill:#c7c7c7"></polygon><polygon points="337.08 185.87 366.91 185.87 340.39 186.82 337.08 185.87" style="fill:#c7c7c7"></polygon><polygon points="383.49 200.62 353.66 200.62 380.18 201.57 383.49 200.62" style="fill:#c7c7c7"></polygon><polygon points="350.69 172.32 384.34 172.32 378.73 172.9 350.69 172.32" style="fill:#c7c7c7"></polygon><polygon points="343.97 217.03 377.62 217.03 372.01 217.6 343.97 217.03" style="fill:#c7c7c7"></polygon><polygon points="354.75 197.01 388.4 197.01 382.79 197.58 354.75 197.01" style="fill:#c7c7c7"></polygon><polygon points="364.66 182.06 386.49 182.06 390.39 183.58 364.66 182.06" style="fill:#ebebeb"></polygon><polygon points="364.66 207.34 386.49 207.34 390.39 208.86 364.66 207.34" style="fill:#ebebeb"></polygon><polygon points="364.76 177.4 386.58 177.4 390.48 178.92 364.76 177.4" style="fill:#dbdbdb"></polygon><polygon points="364.76 223.41 386.58 223.41 390.48 224.94 364.76 223.41" style="fill:#dbdbdb"></polygon><polygon points="361.39 224.18 339.56 224.18 335.67 225.7 361.39 224.18" style="fill:#dbdbdb"></polygon><polygon points="386.49 219.01 404.01 219.01 407.91 220.53 386.49 219.01" style="fill:#c7c7c7"></polygon><polygon points="392.61 212.18 406.2 212.18 404.38 210.93 392.61 212.18" style="fill:#c7c7c7"></polygon><polygon points="386.49 197.71 404.01 197.71 407.91 199.23 386.49 197.71" style="fill:#c7c7c7"></polygon><polygon points="392.61 222.71 406.2 222.71 404.38 221.46 392.61 222.71" style="fill:#c7c7c7"></polygon><polygon points="392.61 174.93 406.2 174.93 404.38 173.69 392.61 174.93" style="fill:#c7c7c7"></polygon><rect x="298.78" y="189.55" width="47.09" height="45.25" style="fill:#ebebeb"></rect><rect x="345.87" y="189.55" width="17.9" height="45.25" style="fill:#c7c7c7"></rect><polygon points="298.78 212.18 345.88 212.18 309.1 213.34 298.78 212.18" style="fill:#c7c7c7"></polygon><polygon points="345.88 229.34 298.78 229.34 335.56 230.5 345.88 229.34" style="fill:#c7c7c7"></polygon><polygon points="298.78 199.53 328.61 199.53 302.1 200.48 298.78 199.53" style="fill:#c7c7c7"></polygon><polygon points="345.88 222.67 316.05 222.67 342.56 223.63 345.88 222.67" style="fill:#c7c7c7"></polygon><polygon points="310.08 194.49 343.72 194.49 338.12 195.06 310.08 194.49" style="fill:#c7c7c7"></polygon><polygon points="303.36 217.03 337 217.03 331.4 217.6 303.36 217.03" style="fill:#c7c7c7"></polygon><polygon points="324.05 203.84 345.88 203.84 349.77 205.36 324.05 203.84" style="fill:#ebebeb"></polygon><polygon points="292.77 203.84 314.6 203.84 318.49 205.36 292.77 203.84" style="fill:#dbdbdb"></polygon><polygon points="320.77 224.18 298.95 224.18 295.05 225.7 320.77 224.18" style="fill:#dbdbdb"></polygon><polygon points="345.88 219.01 363.4 219.01 367.3 220.53 345.88 219.01" style="fill:#c7c7c7"></polygon><polygon points="351.99 212.18 365.58 212.18 363.77 210.93 351.99 212.18" style="fill:#c7c7c7"></polygon></g><g id="freepik--Device--inject-2"><polygon points="234.11 234.79 178.72 234.79 178.72 230.49 234.11 228.7 234.11 234.79" style="fill:#455a64"></polygon><path d="M277.64,234.72H241.1c-3.12,0,1.4-8.88,12.78-12.29S281.23,231.39,277.64,234.72Z" style="fill:#37474f"></path><path d="M263.31,234.72a8.93,8.93,0,0,1,.32-3,11.1,11.1,0,0,1,1.21-2.84,9.14,9.14,0,0,1,2-2.37,7.46,7.46,0,0,1,2.69-1.47,19,19,0,0,0-2.15,2,15.34,15.34,0,0,0-1.7,2.32A26.86,26.86,0,0,0,263.31,234.72Z" style="fill:#263238"></path><path d="M267.64,226.27a16.07,16.07,0,0,1,3.23,1.13,18.53,18.53,0,0,1,3,1.72,11.69,11.69,0,0,1,2.54,2.38,5,5,0,0,1,1.24,3.22,7,7,0,0,0-1.82-2.71,18.88,18.88,0,0,0-2.54-2.08C271.48,228.64,269.56,227.51,267.64,226.27Z" style="fill:#263238"></path><polygon points="303.87 217.53 215.03 217.53 229.16 151.4 318 151.4 303.87 217.53" style="fill:#455a64"></polygon><polygon points="307.15 217.53 218.32 217.53 232.45 151.4 321.28 151.4 307.15 217.53" style="fill:#37474f"></polygon><polygon points="259.24 193.82 257.16 193.82 260.32 178.98 262.4 178.98 259.24 193.82" style="fill:#263238"></polygon><polygon points="263.35 193.82 261.27 193.82 264.43 178.98 266.51 178.98 263.35 193.82" style="fill:#263238"></polygon><polygon points="267.46 193.82 265.38 193.82 268.54 178.98 270.63 178.98 267.46 193.82" style="fill:#263238"></polygon><polygon points="271.57 193.82 269.49 193.82 272.65 178.98 274.74 178.98 271.57 193.82" style="fill:#263238"></polygon><polygon points="275.69 193.82 273.6 193.82 276.76 178.98 278.85 178.98 275.69 193.82" style="fill:#263238"></polygon><polygon points="279.8 193.82 277.71 193.82 280.88 178.98 282.96 178.98 279.8 193.82" style="fill:#263238"></polygon><polygon points="283.91 193.82 281.82 193.82 284.99 178.98 287.07 178.98 283.91 193.82" style="fill:#263238"></polygon><polygon points="282.03 234.8 238.34 234.8 238.34 231.41 282.03 230 282.03 234.8" style="fill:#455a64"></polygon><polygon points="293.91 234.8 270.45 234.8 256.32 197.74 279.78 197.74 293.91 234.8" style="fill:#455a64"></polygon><polygon points="297.77 234.8 274.31 234.8 260.18 197.74 283.64 197.74 297.77 234.8" style="fill:#263238"></polygon></g><g id="freepik--Progress--inject-2"><rect x="189.75" y="119.25" width="120.5" height="11.16" style="fill:#ebebeb"></rect><polygon points="196.95 128.28 192.23 128.28 192.23 121.38 193.95 121.38 196.95 128.28" style="fill:#0A6D35"></polygon><polygon points="202.62 128.28 198.35 128.28 195.35 121.38 199.62 121.38 202.62 128.28" style="fill:#0A6D35"></polygon><polygon points="208.09 128.28 203.82 128.28 200.82 121.38 205.09 121.38 208.09 128.28" style="fill:#0A6D35"></polygon><polygon points="213.55 128.28 209.29 128.28 206.29 121.38 210.55 121.38 213.55 128.28" style="fill:#0A6D35"></polygon><polygon points="219.02 128.28 214.75 128.28 211.75 121.38 216.02 121.38 219.02 128.28" style="fill:#0A6D35"></polygon><polygon points="224.49 128.28 220.22 128.28 217.22 121.38 221.49 121.38 224.49 128.28" style="fill:#0A6D35"></polygon><polygon points="229.95 128.28 225.69 128.28 222.69 121.38 226.95 121.38 229.95 128.28" style="fill:#0A6D35"></polygon><polygon points="235.42 128.28 231.15 128.28 228.15 121.38 232.42 121.38 235.42 128.28" style="fill:#0A6D35"></polygon><polygon points="240.88 128.28 236.62 128.28 233.62 121.38 237.88 121.38 240.88 128.28" style="fill:#0A6D35"></polygon><polygon points="246.35 128.28 242.08 128.28 239.08 121.38 243.35 121.38 246.35 128.28" style="fill:#0A6D35"></polygon><polygon points="251.82 128.28 247.55 128.28 244.55 121.38 248.82 121.38 251.82 128.28" style="fill:#0A6D35"></polygon><polygon points="257.28 128.28 253.02 128.28 250.02 121.38 254.28 121.38 257.28 128.28" style="fill:#0A6D35"></polygon><polygon points="296.04 130.41 303.36 130.41 303.36 138.53 296.04 130.41" style="fill:#ebebeb"></polygon></g></svg>